<svg id="Capa_1" data-name="Capa 1" xmlns="http://www.w3.org/2000/svg" viewBox="0 0 2604.96 4350.96"><defs><style>.cls-1{fill:#fff;}.cls-2{fill:none;stroke:#000;stroke-linecap:round;stroke-linejoin:round;stroke-width:1px;}</style></defs><title>07</title><g id="POLYLINE"><polygon class="cls-1" points="1595.42 1911.49 1616.61 1924.27 1632.95 1941.14 1643.67 1961.07 1647.75 1982.54 1644.95 2004.27 1635.5 2024.46 1620.18 2042.1 1600.02 2055.9 1576.27 2064.59 1550.49 2068.17 1524.45 2065.87 1500.2 2057.94 1479.01 2045.16 1462.67 2028.29 1452.2 2008.36 1448.12 1986.89 1450.67 1965.42 1460.12 1944.97 1475.43 1927.33 1495.6 1913.79 1519.6 1904.84 1545.13 1901.52 1571.17 1903.82 1595.42 1911.49"/><polygon class="cls-1" points="1681.96 3497.45 1686.3 3508.7 1688.35 3520.2 1688.35 3531.96 1686.05 3543.72 1681.71 3554.96 1667.92 3552.92 1654.39 3549.08 1641.88 3543.72 1630.65 3536.82 1620.69 3528.38 1612.52 3518.67 1606.14 3508.19 1602.06 3496.94 1599.76 3485.44 1599.76 3473.68 1602.06 3461.93 1606.4 3450.93 1620.44 3452.72 1633.71 3456.56 1646.22 3461.93 1657.71 3469.08 1667.41 3477.52 1675.84 3486.97 1681.96 3497.45"/><polygon class="cls-1" points="1366.43 337.53 1330.18 343.16 1293.16 344.43 1256.65 341.11 1220.91 333.19 1186.96 321.18 1155.3 305.33 1126.97 285.65 1102.2 262.64 1081.78 237.08 1066.21 209.22 1055.49 179.57 1090.2 173.44 1125.69 170.88 1161.17 172.16 1196.4 176.76 1230.36 185.2 1263.04 197.21 1293.67 212.29 1321.75 230.44 1347.03 251.4 1368.72 274.91 1387.11 300.22 1401.4 327.56 1366.43 337.53"/><polygon class="cls-1" points="692.47 1281.96 719.78 1287.07 746.08 1295.25 735.1 1317.48 720.04 1338.19 701.66 1356.85 680.21 1372.95 655.96 1386.24 629.92 1396.46 602.09 1403.36 573.5 1406.94 544.65 1406.69 516.06 1403.11 488.49 1396.21 462.45 1385.98 475.47 1365.02 491.81 1345.86 510.7 1328.73 532.4 1313.9 556.14 1301.38 581.67 1291.41 608.73 1284.51 636.3 1280.68 664.38 1279.66 692.47 1281.96"/><polygon class="cls-1" points="2411.32 1028.92 2376.09 1016.65 2345.97 997.48 2322.99 972.43 2308.44 943.04 2303.59 911.6 2308.44 880.16 2322.99 851.02 2345.97 825.72 2376.09 806.55 2411.32 794.54 2448.85 790.19 2448.85 1033.01 2411.32 1028.92"/><polygon class="cls-1" points="884.95 1539.34 856.11 1529.37 831.34 1513.78 812.45 1493.08 800.45 1469.05 796.37 1443.24 800.45 1417.42 812.45 1393.4 831.34 1372.69 856.11 1356.85 884.95 1346.88 915.84 1343.55 946.73 1346.88 975.58 1356.85 1000.34 1372.69 1019.24 1393.4 1031.23 1417.42 1035.32 1443.24 1031.23 1469.05 1019.24 1493.08 1000.34 1513.78 975.58 1529.37 946.73 1539.34 915.84 1542.92 884.95 1539.34"/><polygon class="cls-1" points="2363.07 1637.49 2366.39 1661.77 2366.14 1686.05 2362.05 1710.33 2354.39 1733.85 2342.9 1756.6 2328.1 1777.56 2310.23 1796.98 2289.55 1814.11 2266.32 1829.18 2240.79 1841.2 2225.98 1818.96 2215.51 1795.19 2209.39 1770.14 2208.11 1744.84 2211.18 1719.54 2219.09 1694.74 2231.09 1671.48 2247.43 1649.76 2267.34 1630.59 2290.82 1614.23 2316.61 1600.94 2344.95 1590.97 2355.67 1613.72 2363.07 1637.49"/><polygon class="cls-1" points="225.29 2980.13 228.86 2991.12 229.88 3002.62 228.86 3014.12 225.29 3025.11 219.42 3035.34 211.76 3044.8 202.06 3052.97 190.82 3059.62 190.82 2945.62 202.06 2952.27 211.76 2960.45 219.42 2969.65 225.29 2980.13"/><polygon class="cls-1" points="468.07 3137.83 451.22 3135.79 435.65 3130.42 422.12 3121.73 411.65 3110.48 405.27 3097.45 402.97 3083.39 405.27 3069.33 411.65 3056.3 422.12 3045.05 435.65 3036.36 451.22 3030.99 468.07 3028.95 484.92 3030.99 500.74 3036.36 514.27 3045.05 524.49 3056.3 531.12 3069.33 533.17 3083.39 531.12 3097.45 524.49 3110.48 514.27 3121.73 500.74 3130.42 484.92 3135.79 468.07 3137.83"/><polygon class="cls-1" points="1548.7 2792.27 1528.53 2794.57 1508.37 2792.27 1489.47 2785.88 1473.14 2775.4 1460.88 2762.11 1452.97 2746.26 1450.42 2729.39 1452.97 2712.52 1460.88 2696.67 1473.14 2683.38 1489.47 2672.9 1508.37 2666.51 1528.53 2664.21 1548.7 2666.51 1567.59 2672.9 1583.68 2683.38 1596.19 2696.67 1603.84 2712.52 1606.65 2729.39 1603.84 2746.26 1596.19 2762.11 1583.68 2775.4 1567.59 2785.88 1548.7 2792.27"/><polygon class="cls-1" points="1356.47 1686.05 1326.09 1682.73 1297.75 1673.02 1273.5 1657.42 1254.87 1637.23 1243.12 1613.46 1239.29 1588.16 1243.12 1562.86 1254.87 1539.34 1273.5 1519.15 1297.75 1503.56 1326.09 1493.84 1356.47 1490.52 1386.85 1493.84 1414.93 1503.56 1439.44 1519.15 1458.08 1539.34 1469.56 1562.86 1473.65 1588.16 1469.56 1613.46 1458.08 1637.23 1439.44 1657.42 1414.93 1673.02 1386.85 1682.73 1356.47 1686.05"/><polygon class="cls-1" points="909.46 2575.01 888.78 2572.71 869.38 2566.07 852.79 2555.33 840.02 2541.53 831.85 2525.17 829.3 2507.79 831.85 2490.66 840.02 2474.31 852.79 2460.51 869.38 2449.77 888.78 2443.12 909.46 2440.82 930.39 2443.12 949.8 2449.77 966.39 2460.51 979.15 2474.31 987.07 2490.66 989.88 2507.79 987.07 2525.17 979.15 2541.53 966.39 2555.33 949.8 2566.07 930.39 2572.71 909.46 2575.01"/><polygon class="cls-1" points="567.63 3861.93 576.31 3854.26 586.52 3848.13 597.75 3843.78 610.01 3841.23 622.52 3840.72 635.03 3842.25 646.77 3845.83 657.75 3851.2 653.92 3859.63 649.07 3867.81 642.94 3875.48 635.54 3882.38 627.37 3888.26 618.18 3893.37 608.48 3897.46 598.01 3900.53 587.29 3902.57 576.57 3903.34 565.59 3902.83 554.61 3901.29 554.36 3890.81 556.65 3880.59 560.99 3870.88 567.63 3861.93"/><polygon class="cls-1" points="296.51 2068.17 270.48 2065.36 246.48 2056.92 225.8 2043.63 209.97 2026.5 200.01 2006.31 196.7 1984.84 200.01 1963.12 209.97 1943.18 225.8 1925.8 246.48 1912.51 270.48 1904.33 296.51 1901.52 322.3 1904.33 346.3 1912.51 366.97 1925.8 382.8 1943.18 392.76 1963.12 396.33 1984.84 392.76 2006.31 382.8 2026.5 366.97 2043.63 346.3 2056.92 322.3 2065.36 296.51 2068.17"/><polygon class="cls-1" points="1863.47 2531.05 1860.41 2511.11 1860.15 2491.18 1862.71 2471.49 1867.81 2451.81 1875.73 2432.9 1885.94 2415.01 1898.7 2398.14 1913.76 2382.55 1930.87 2368.75 1949.76 2356.48 1970.18 2346 1977.33 2365.42 1981.42 2385.36 1982.69 2405.55 1980.65 2425.74 1975.8 2445.68 1967.88 2464.85 1957.16 2483 1944.14 2499.87 1928.32 2515.46 1910.44 2529 1890.53 2540.76 1869.34 2550.47 1863.47 2531.05"/><polygon class="cls-1" points="711.1 567.82 697.83 538.17 689.66 507.5 686.08 476.06 687.62 444.63 694 413.7 705.23 383.54 721.06 354.91 741.23 328.33 765.48 304.05 793.3 282.83 824.19 264.69 857.64 250.12 867.34 279.77 872.96 310.18 874.49 340.86 871.42 371.53 864.27 401.69 853.04 431.08 837.98 458.94 818.83 485.52 796.37 509.8 770.58 531.78 741.99 551.21 711.1 567.82"/><polygon class="cls-1" points="2394.22 240.15 2375.58 232.23 2358.48 222.51 2342.9 210.76 2329.37 197.47 2318.4 182.9 2309.46 167.05 2303.33 150.44 2300.01 133.31 2299.51 115.93 2464.42 115.93 2454.97 250.38 2434.3 249.35 2413.87 245.77 2394.22 240.15"/><polygon class="cls-1" points="719.53 1607.84 728.21 1585.86 752.2 1598.13 773.9 1612.95 793.56 1629.57 810.41 1648.48 824.45 1668.67 835.17 1690.4 842.32 1713.14 846.4 1736.15 846.66 1759.66 843.6 1782.92 836.96 1805.67 827 1827.65 804.03 1814.62 782.84 1799.54 764.2 1782.41 748.12 1763.75 734.59 1743.56 724.12 1722.09 716.72 1699.6 712.63 1676.85 711.61 1653.59 713.91 1630.59 719.53 1607.84"/><polygon class="cls-1" points="1063.14 3634.45 1055.23 3626.02 1050.12 3615.79 1048.59 3605.06 1050.12 3594.32 1055.23 3584.36 1063.14 3575.67 1073.36 3569.02 1085.61 3564.93 1098.37 3563.4 1111.39 3564.93 1123.39 3569.02 1133.6 3575.67 1141.77 3584.36 1146.62 3594.32 1148.41 3605.06 1146.62 3615.79 1141.77 3626.02 1133.6 3634.45 1123.39 3641.1 1111.39 3645.19 1098.37 3646.72 1085.61 3645.19 1073.36 3641.1 1063.14 3634.45"/><polygon class="cls-1" points="1121.86 1635.44 1122.88 1659.21 1120.58 1682.98 1114.97 1706.24 1106.03 1728.99 1093.78 1750.46 1078.72 1770.65 1060.85 1789.31 1040.42 1805.93 1017.7 1820.49 993.2 1832.76 982.73 1810.02 976.35 1785.99 973.54 1761.71 974.81 1737.43 979.92 1713.14 989.11 1689.89 1001.62 1667.9 1017.7 1647.46 1037.11 1629.05 1059.06 1612.95 1083.57 1599.4 1109.86 1588.93 1117.52 1611.93 1121.86 1635.44"/><polygon class="cls-1" points="288.09 3358.66 273.03 3348.95 261.54 3336.43 254.39 3321.86 251.84 3306.01 254.39 3290.42 261.54 3275.85 273.03 3263.33 288.09 3253.62 305.7 3247.48 324.6 3245.44 343.23 3247.48 360.85 3253.62 375.91 3263.33 387.4 3275.85 394.8 3290.42 397.35 3306.01 394.8 3321.86 387.4 3336.43 375.91 3348.95 360.85 3358.66 343.23 3364.8 324.6 3366.84 305.7 3364.8 288.09 3358.66"/><polygon class="cls-1" points="1969.67 2938.98 1951.55 2936.93 1934.95 2931.31 1920.4 2921.85 1909.42 2909.84 1902.53 2896.04 1900.23 2880.96 1902.53 2865.88 1909.42 2852.08 1920.4 2840.06 1934.95 2830.86 1951.55 2824.98 1969.67 2822.94 1987.54 2824.98 2004.39 2830.86 2018.69 2840.06 2029.66 2852.08 2036.81 2865.88 2039.11 2880.96 2036.81 2896.04 2029.66 2909.84 2018.69 2921.85 2004.39 2931.31 1987.54 2936.93 1969.67 2938.98"/><polygon class="cls-1" points="596.48 500.86 601.07 528.46 596.48 556.07 583.71 581.88 563.54 604.12 537 620.99 506.11 631.72 472.92 635.3 439.73 631.72 408.84 620.99 382.29 604.12 362.12 581.88 349.1 556.07 344.76 528.46 349.1 500.86 362.12 475.04 382.29 452.81 408.84 435.94 439.73 425.2 472.92 421.62 506.11 425.2 537 435.94 563.54 452.81 583.71 475.04 596.48 500.86"/><polygon class="cls-1" points="1608.18 563.22 1592.61 534.09 1582.4 503.41 1577.29 471.98 1578.06 440.28 1584.19 408.84 1595.67 378.68 1612.27 350.06 1633.46 323.73 1659.24 300.22 1688.6 280.28 1721.28 263.92 1756.51 251.65 1770.8 280.79 1779.99 311.21 1784.08 342.64 1782.8 373.83 1776.42 405.01 1764.93 434.91 1748.59 463.29 1727.91 489.36 1702.9 512.87 1674.3 533.32 1642.39 550.19 1608.18 563.22"/><polygon class="cls-1" points="485.43 330.12 448.67 324.75 413.44 315.3 425.94 285.65 443.56 258.04 465.51 232.48 491.55 210.25 521.42 191.08 554.1 175.74 589.07 164.24 625.58 157.34 663.11 154.53 700.38 156.57 737.14 162.96 772.63 173.44 759.1 202.32 740.72 229.42 718.5 254.21 692.21 275.93 662.6 294.85 630.18 309.93 595.46 321.18 559.46 328.33 522.44 331.4 485.43 330.12"/><polygon class="cls-1" points="1410.34 3062.94 1416.97 3076.49 1419.27 3091.06 1416.97 3105.63 1410.34 3119.17 1399.61 3130.68 1385.57 3139.62 1369.49 3145.24 1352.13 3147.29 1334.52 3145.24 1318.43 3139.62 1304.39 3130.68 1293.67 3119.17 1287.03 3105.63 1284.73 3091.06 1287.03 3076.49 1293.67 3062.94 1304.39 3051.44 1318.43 3042.49 1334.52 3036.87 1352.13 3034.83 1369.49 3036.87 1385.57 3042.49 1399.61 3051.44 1410.34 3062.94"/><polygon class="cls-1" points="640.9 2654.76 620.73 2655.01 600.82 2652.97 581.67 2648.37 563.29 2641.47 546.44 2632.52 531.38 2621.53 518.36 2608.75 507.89 2594.44 499.72 2579.1 517.34 2570.16 536.49 2563.51 556.65 2559.68 577.33 2558.65 598.01 2560.44 617.92 2565.04 636.81 2572.2 653.92 2581.91 668.98 2593.67 681.49 2607.47 691.19 2622.81 697.57 2639.16 679.7 2646.83 660.55 2651.95 640.9 2654.76"/><polygon class="cls-1" points="426.71 3474.7 432.58 3483.91 436.92 3493.62 440.24 3503.59 442.03 3514.07 442.54 3524.29 441.52 3534.77 439.22 3544.99 435.65 3554.96 430.54 3564.42 418.54 3559.31 407.56 3552.41 398.12 3544.23 390.2 3535.03 384.33 3524.8 380.5 3513.81 378.97 3502.57 379.48 3491.06 382.29 3480.07 387.14 3469.34 394.03 3459.63 402.97 3450.93 411.9 3458.09 419.82 3466.01 426.71 3474.7"/><polygon class="cls-1" points="1589.8 1615.25 1601.04 1593.27 1627.84 1600.43 1653.37 1610.65 1676.6 1623.94 1697.28 1639.79 1715.15 1658.19 1729.45 1678.38 1740.17 1700.11 1747.06 1723.11 1749.87 1746.37 1748.59 1769.89 1742.98 1793.15 1733.79 1815.38 1705.7 1809.5 1679.15 1800.05 1654.65 1787.52 1632.69 1771.68 1614.31 1753.27 1599.25 1732.57 1588.53 1710.08 1582.14 1686.82 1580.1 1662.79 1582.65 1638.77 1589.8 1615.25"/><polygon class="cls-1" points="486.19 2419.35 463.22 2416.8 441.77 2409.39 423.39 2397.63 409.1 2382.04 400.16 2364.14 397.35 2344.98 400.16 2325.81 409.1 2307.91 423.39 2292.58 441.77 2280.82 463.22 2273.41 486.19 2270.85 509.17 2273.41 530.61 2280.82 549.25 2292.58 563.29 2307.91 572.23 2325.81 575.29 2344.98 572.23 2364.14 563.29 2382.04 549.25 2397.63 530.61 2409.39 509.17 2416.8 486.19 2419.35"/><polygon class="cls-1" points="287.32 3814.65 274.3 3813.11 262.31 3809.02 252.09 3802.38 244.18 3793.69 239.07 3783.72 237.29 3772.99 239.07 3762.25 244.18 3752.03 252.09 3743.59 262.31 3736.95 274.3 3732.6 287.32 3731.32 300.34 3732.6 312.34 3736.95 322.55 3743.59 330.47 3752.03 335.57 3762.25 337.36 3772.99 335.57 3783.72 330.47 3793.69 322.55 3802.38 312.34 3809.02 300.34 3813.11 287.32 3814.65"/><polygon class="cls-1" points="216.1 2353.92 220.18 2357.24 223.76 2361.08 226.82 2365.17 229.63 2369.51 234.73 2379.74 238.05 2390.73 239.33 2401.97 238.82 2413.22 236.52 2424.47 232.18 2434.95 226.05 2445.17 218.14 2454.37 208.95 2462.55 198.48 2469.71 186.74 2475.33 174.49 2479.67 174.49 2338.33 180.1 2338.84 185.72 2339.86 191.34 2341.14 196.95 2342.93 202.06 2345.23 206.91 2347.79 211.76 2350.6 216.1 2353.92"/><polygon class="cls-1" points="2000.05 167.31 2038.35 171.65 2073.83 183.92 2104.46 203.34 2127.95 228.91 2142.76 258.55 2147.61 290.5 2142.76 322.45 2127.95 352.1 2104.46 377.66 2073.83 397.09 2038.35 409.61 2000.05 413.7 1962.01 409.61 1926.27 397.09 1895.64 377.66 1872.15 352.1 1857.6 322.45 1852.49 290.5 1857.6 258.55 1872.15 228.91 1895.64 203.34 1926.27 183.92 1962.01 171.65 2000.05 167.31"/><polygon class="cls-1" points="1373.32 4182.7 1364.38 4185.77 1354.94 4186.79 1345.49 4185.77 1336.56 4182.7 1328.9 4177.85 1323.03 4171.46 1319.2 4164.05 1318.18 4156.12 1319.2 4148.2 1323.03 4140.79 1328.9 4134.4 1336.56 4129.54 1345.49 4126.47 1354.94 4125.19 1364.38 4126.47 1373.32 4129.54 1380.98 4134.4 1386.85 4140.79 1390.68 4148.2 1391.95 4156.12 1390.68 4164.05 1386.85 4171.46 1380.98 4177.85 1373.32 4182.7"/><polygon class="cls-1" points="190.82 3511.51 190.82 3450.93 200.27 3451.96 208.95 3455.03 216.61 3459.88 222.22 3466.01 226.05 3473.43 227.08 3481.09 226.05 3489.02 222.22 3496.43 216.61 3502.57 208.95 3507.42 200.27 3510.49 190.82 3511.51"/><polygon class="cls-1" points="883.68 2834.7 859.42 2826.52 838.75 2813.23 822.92 2795.84 812.96 2775.91 809.64 2754.18 812.96 2732.71 822.92 2712.52 838.75 2695.4 859.42 2682.11 883.68 2673.93 909.46 2670.86 935.25 2673.93 959.24 2682.11 979.92 2695.4 995.75 2712.52 1005.96 2732.71 1009.28 2754.18 1005.96 2775.91 995.75 2795.84 979.92 2813.23 959.24 2826.52 935.25 2834.7 909.46 2837.51 883.68 2834.7"/><polygon class="cls-1" points="1288.05 2161.71 1261.25 2159.67 1234.7 2154.81 1209.42 2147.14 1185.68 2136.67 1163.73 2123.63 1143.82 2108.3 1126.71 2090.91 1112.41 2072 1101.18 2051.55 1126.97 2045.16 1153.26 2041.84 1180.07 2041.07 1206.62 2043.37 1232.91 2048.23 1257.93 2055.9 1281.67 2066.38 1303.63 2079.16 1323.54 2093.98 1340.9 2111.11 1355.45 2129.76 1367.19 2149.96 1341.41 2156.6 1314.86 2160.69 1288.05 2161.71"/><polygon class="cls-1" points="2236.19 2420.12 2215 2417.82 2195.09 2410.92 2177.99 2399.93 2164.97 2385.87 2156.54 2369.26 2153.74 2351.37 2156.54 2333.47 2164.97 2316.86 2177.99 2302.8 2195.09 2291.81 2215 2284.91 2236.19 2282.61 2257.64 2284.91 2277.55 2291.81 2294.65 2302.8 2307.67 2316.86 2315.84 2333.47 2318.91 2351.37 2315.84 2369.26 2307.67 2385.87 2294.65 2399.93 2277.55 2410.92 2257.64 2417.82 2236.19 2420.12"/><polygon class="cls-1" points="1988.56 1176.65 1953.33 1172.82 1920.4 1161.32 1892.07 1143.42 1870.37 1119.65 1856.58 1092.05 1851.98 1062.66 1856.58 1033.01 1870.37 1005.66 1892.07 981.89 1920.4 963.74 1953.33 952.49 1988.56 948.4 2024.05 952.49 2056.98 963.74 2085.32 981.89 2107.02 1005.66 2120.8 1033.01 2125.4 1062.66 2120.8 1092.05 2107.02 1119.65 2085.32 1143.42 2056.98 1161.32 2024.05 1172.82 1988.56 1176.65"/><polygon class="cls-1" points="1028.42 291.01 1053.44 314.53 1075.4 339.83 1094.03 367.18 1109.1 395.81 1120.58 425.71 1127.99 456.38 1131.56 487.57 1131.05 519 1126.71 550.19 1118.29 580.6 1084.08 565.27 1052.42 546.35 1024.09 524.12 999.32 498.81 978.9 471.21 962.82 441.81 951.58 410.63 945.2 378.68 943.92 346.22 947.75 313.76 956.43 282.07 969.96 251.65 1000.6 270.06 1028.42 291.01"/><polygon class="cls-1" points="1980.39 1905.86 1953.33 1902.8 1928.32 1894.11 1906.62 1880.3 1890.02 1862.41 1879.81 1841.45 1876.24 1818.71 1879.81 1796.21 1890.02 1775.25 1906.62 1757.36 1928.32 1743.56 1953.33 1734.87 1980.39 1731.8 2007.45 1734.87 2032.47 1743.56 2053.92 1757.36 2070.51 1775.25 2080.98 1796.21 2084.55 1818.71 2080.98 1841.45 2070.51 1862.41 2053.92 1880.3 2032.47 1894.11 2007.45 1902.8 1980.39 1905.86"/><polygon class="cls-1" points="1063.91 1176.14 1032.51 1165.15 1005.7 1148.02 984.77 1125.53 972.01 1099.21 967.41 1071.09 972.01 1042.97 984.77 1016.9 1005.7 994.16 1032.51 977.03 1063.91 966.04 1097.61 962.46 1131.31 966.04 1162.71 977.03 1189.77 994.16 1210.44 1016.9 1223.46 1042.97 1227.81 1071.09 1223.46 1099.21 1210.44 1125.53 1189.77 1148.02 1162.71 1165.15 1131.31 1176.14 1097.61 1179.72 1063.91 1176.14"/><polygon class="cls-1" points="2081.49 2027.78 2105.74 2029.83 2128.97 2035.19 2151.18 2043.63 2171.09 2054.88 2188.97 2068.42 2203.77 2084.52 2215.26 2102.16 2223.43 2121.33 2202.75 2132.32 2180.28 2140.24 2156.54 2145.1 2132.04 2146.38 2107.78 2144.33 2084.04 2139.22 2061.83 2130.79 2041.66 2119.28 2024.05 2105.23 2009.24 2088.87 1998.01 2070.72 1990.61 2051.3 2011.28 2040.82 2033.75 2033.4 2057.49 2029.06 2081.49 2027.78"/><polygon class="cls-1" points="2224.7 1087.96 2235.68 1065.72 2262.74 1073.65 2288.27 1084.64 2311.5 1098.95 2332.18 1115.56 2349.54 1134.73 2363.07 1155.95 2373.03 1178.44 2378.9 1201.95 2380.43 1225.72 2377.88 1249.75 2370.99 1273.01 2360.26 1295.25 2332.95 1287.32 2307.42 1276.33 2284.19 1262.02 2263.76 1245.41 2246.41 1226.24 2232.62 1205.02 2222.66 1182.53 2217.05 1159.02 2215.26 1135.24 2218.07 1111.22 2224.7 1087.96"/><polygon class="cls-1" points="172.7 1765.54 172.7 1586.11 174.74 1580.23 178.57 1575.12 183.42 1570.52 189.55 1567.2 196.44 1565.15 203.59 1564.39 210.99 1565.15 217.88 1567.2 224.01 1570.52 228.86 1575.12 232.44 1580.23 234.73 1586.11 239.84 1602.22 243.41 1618.32 244.69 1634.93 244.18 1651.29 241.63 1667.65 237.03 1683.75 230.65 1699.6 222.48 1714.42 212.27 1728.74 200.78 1742.03 187.51 1754.3 172.7 1765.54"/><polygon class="cls-1" points="1440.46 3473.17 1442.5 3484.93 1442.76 3496.69 1440.71 3508.7 1436.63 3519.95 1430.76 3530.94 1423.1 3540.91 1413.65 3549.85 1402.93 3557.77 1390.93 3564.16 1377.91 3569.02 1372.55 3558.28 1368.98 3546.78 1367.19 3535.28 1367.45 3523.52 1369.49 3511.77 1373.58 3500.52 1379.19 3489.79 1386.59 3479.82 1395.79 3470.87 1406 3462.95 1417.74 3456.3 1430.25 3450.93 1436.38 3461.67 1440.46 3473.17"/><polygon class="cls-1" points="989.11 2163.25 997.79 2143.06 1020.77 2152 1042.21 2163.5 1061.61 2177.3 1078.72 2193.15 1093.27 2210.53 1105.01 2229.19 1113.69 2249.13 1119.31 2270.09 1121.61 2291.05 1120.58 2312.26 1116.24 2333.22 1108.84 2353.67 1085.1 2345.23 1062.63 2334.24 1042.47 2320.95 1024.85 2305.36 1009.79 2287.72 997.79 2268.55 988.86 2248.36 983.75 2227.4 981.96 2205.93 983.75 2184.21 989.11 2163.25"/><polygon class="cls-1" points="1263.8 3885.7 1269.16 3894.14 1273.5 3902.83 1261.5 3905.13 1249.25 3905.89 1237.25 3905.13 1225.25 3902.83 1213.76 3899.25 1203.3 3894.14 1193.6 3888 1185.17 3880.59 1178.28 3872.16 1172.92 3863.21 1169.09 3853.5 1167.05 3843.27 1178.53 3843.27 1190.02 3844.3 1201.26 3846.34 1211.98 3849.15 1222.44 3853.24 1232.4 3858.1 1241.59 3863.98 1249.76 3870.37 1257.16 3877.78 1263.8 3885.7"/><polygon class="cls-1" points="571.97 2875.08 553.59 2873.55 535.72 2869.71 518.36 2864.09 526.27 2850.03 536.23 2837 548.23 2825.24 562.01 2815.27 577.59 2806.58 594.18 2799.93 611.79 2795.33 630.18 2792.52 648.56 2792.27 666.94 2793.8 684.81 2797.38 702.17 2803.26 694.25 2817.32 684.3 2830.09 672.3 2841.85 658.26 2852.08 642.94 2860.51 626.35 2867.41 608.73 2872.01 590.35 2874.57 571.97 2875.08"/><polygon class="cls-1" points="236.78 1290.65 229.12 1295.25 220.95 1298.83 212.01 1301.13 202.82 1302.4 193.38 1302.15 184.19 1300.62 175.51 1298.06 167.34 1294.22 167.34 1094.86 183.42 1104.32 198.48 1114.8 212.01 1126.55 224.01 1139.59 234.48 1153.39 243.16 1168.22 250.05 1183.3 254.9 1199.14 257.96 1215.5 258.99 1231.86 257.96 1248.22 255.16 1264.32 252.6 1271.73 248.52 1278.89 243.16 1285.28 236.78 1290.65"/><polygon class="cls-1" points="1804.25 793.51 1771.57 789.94 1741.19 779.46 1715.15 762.59 1695.24 740.86 1682.73 715.56 1678.39 688.47 1682.73 661.12 1695.24 635.81 1715.15 614.09 1741.19 597.47 1771.57 586.99 1804.25 583.41 1836.92 586.99 1867.05 597.47 1893.34 614.09 1913.25 635.81 1925.76 661.12 1930.1 688.47 1925.76 715.56 1913.25 740.86 1893.34 762.59 1867.05 779.46 1836.92 789.94 1804.25 793.51"/><polygon class="cls-1" points="2245.64 3567.23 2242.57 3554.96 2241.55 3542.69 2242.57 3530.43 2245.64 3518.16 2250.49 3506.66 2257.38 3495.66 2266.06 3485.7 2276.27 3476.49 2287.76 3468.83 2300.53 3462.44 2314.06 3457.58 2318.4 3469.34 2320.95 3481.35 2321.72 3493.62 2320.44 3505.63 2317.12 3517.64 2312.27 3529.15 2305.38 3539.88 2297.21 3550.11 2287.25 3559.05 2276.02 3566.97 2263.76 3573.62 2250.49 3578.73 2245.64 3567.23"/><polygon class="cls-1" points="1806.54 2784.34 1787.91 2782.3 1770.55 2776.16 1755.74 2766.71 1744.51 2754.44 1737.11 2739.87 1734.81 2724.53 1737.11 2708.94 1744.51 2694.63 1755.74 2682.11 1770.55 2672.65 1787.91 2666.77 1806.54 2664.72 1824.92 2666.77 1842.28 2672.65 1857.09 2682.11 1868.32 2694.63 1875.73 2708.94 1878.02 2724.53 1875.73 2739.87 1868.32 2754.44 1857.09 2766.71 1842.28 2776.16 1824.92 2782.3 1806.54 2784.34"/><polygon class="cls-1" points="1336.3 1398.76 1308.48 1400.81 1280.9 1399.79 1253.33 1396.21 1226.78 1389.56 1201.51 1380.11 1177.77 1367.84 1156.07 1353.52 1136.92 1336.91 1120.33 1318.25 1106.54 1298.06 1096.08 1276.59 1123.39 1268.92 1151.73 1264.58 1180.32 1263.55 1208.91 1266.37 1236.74 1272.5 1263.04 1282.21 1287.54 1294.99 1309.24 1310.33 1328.13 1328.47 1343.71 1348.67 1355.45 1370.65 1363.36 1393.65 1336.3 1398.76"/><polygon class="cls-1" points="464.75 4120.85 476.49 4122.13 487.47 4125.96 496.92 4131.84 504.32 4139.76 508.91 4148.97 510.44 4158.93 508.91 4168.65 504.32 4177.85 496.92 4185.77 487.47 4191.9 476.49 4195.48 464.75 4196.76 453.01 4195.48 442.03 4191.9 432.58 4185.77 425.43 4177.85 420.84 4168.65 419.31 4158.93 420.84 4148.97 425.43 4139.76 432.58 4131.84 442.03 4125.96 453.01 4122.13 464.75 4120.85"/><polygon class="cls-1" points="2085.83 1609.88 2059.79 1613.21 2033.49 1613.46 2007.45 1611.42 1981.93 1606.31 1990.1 1584.58 2001.84 1564.39 2017.16 1545.47 2035.79 1528.86 2056.98 1514.55 2080.47 1503.05 2105.49 1494.36 2132.04 1488.99 2159.1 1486.94 2186.41 1488.22 2212.96 1492.57 2238.49 1500.23 2227.77 1520.17 2214.24 1539.09 2197.64 1556.21 2179.01 1571.29 2158.07 1584.58 2135.1 1595.57 2111.1 1604.01 2085.83 1609.88"/><polygon class="cls-1" points="472.41 1686.05 444.33 1682.98 418.03 1674.04 395.57 1659.47 378.21 1640.81 367.48 1619.09 363.65 1595.57 367.48 1572.06 378.21 1550.33 395.57 1531.42 418.03 1517.1 444.33 1508.16 472.41 1505.09 500.49 1508.16 526.53 1517.1 548.99 1531.42 566.35 1550.33 577.08 1572.06 580.9 1595.57 577.08 1619.09 566.35 1640.81 548.99 1659.47 526.53 1674.04 500.49 1682.98 472.41 1686.05"/><polygon class="cls-1" points="2056.22 2667.79 2035.54 2667.54 2015.11 2664.72 1995.2 2659.61 2001.84 2642.74 2011.54 2627.15 2023.79 2612.58 2038.35 2599.8 2055.19 2589.07 2073.57 2580.12 2093.23 2573.73 2113.91 2569.9 2135.1 2568.37 2156.29 2569.64 2176.97 2573.22 2196.88 2579.36 2188.97 2595.46 2178.75 2610.54 2165.99 2624.34 2151.18 2636.61 2134.59 2646.83 2116.46 2655.52 2097.32 2661.91 2076.89 2666 2056.22 2667.79"/><polygon class="cls-1" points="2009.24 3598.16 2015.11 3610.43 2017.41 3623.46 2015.11 3636.5 2009.24 3648.77 1999.54 3659.24 1987.03 3667.42 1972.22 3672.54 1956.4 3674.07 1940.83 3672.54 1926.02 3667.42 1913.51 3659.24 1903.81 3648.77 1897.68 3636.5 1895.64 3623.46 1897.68 3610.43 1903.81 3598.16 1913.51 3587.68 1926.02 3579.5 1940.83 3574.39 1956.4 3572.85 1972.22 3574.39 1987.03 3579.5 1999.54 3587.68 2009.24 3598.16"/><polygon class="cls-1" points="2106 3387.04 2091.7 3389.85 2077.15 3390.87 2062.34 3390.36 2048.05 3388.57 2034.01 3384.99 2039.11 3373.23 2046.26 3362.24 2055.45 3352.02 2065.92 3343.33 2078.17 3335.66 2091.19 3329.78 2105.49 3325.69 2120.04 3323.14 2135.1 3322.37 2150.16 3323.39 2164.71 3326.46 2178.75 3331.06 2172.63 3342.05 2164.71 3352.28 2155.27 3361.73 2144.55 3369.91 2132.55 3377.07 2119.53 3382.69 2106 3387.04"/><polygon class="cls-1" points="1544.62 3736.43 1554.06 3742.31 1561.21 3750.24 1565.81 3759.44 1567.34 3769.41 1565.81 3779.12 1561.21 3788.32 1554.06 3796.24 1544.62 3802.12 1533.64 3805.96 1521.9 3807.24 1510.15 3805.96 1498.92 3802.12 1489.73 3796.24 1482.33 3788.32 1477.73 3779.12 1476.2 3769.41 1477.73 3759.44 1482.33 3750.24 1489.73 3742.31 1498.92 3736.43 1510.15 3732.6 1521.9 3731.32 1533.64 3732.6 1544.62 3736.43"/><polygon class="cls-1" points="2225.47 277.47 2236.96 248.84 2269.64 261.88 2300.01 278.49 2327.33 298.43 2351.33 320.92 2371.75 346.22 2387.58 373.32 2399.32 401.94 2406.22 431.59 2408.26 462.01 2405.45 492.17 2398.05 521.82 2385.79 550.19 2353.63 536.64 2323.76 519.77 2296.7 499.83 2272.95 477.09 2253.04 452.04 2237.21 424.95 2225.73 396.57 2218.58 366.93 2216.28 337.02 2218.58 306.86 2225.47 277.47"/><polygon class="cls-1" points="1480.54 3253.11 1497.13 3247.48 1514.75 3245.44 1532.36 3247.48 1548.7 3253.11 1562.74 3262.05 1573.46 3273.81 1580.36 3287.61 1582.65 3302.18 1580.36 3317 1573.46 3330.55 1562.74 3342.31 1548.7 3351.51 1532.36 3357.13 1514.75 3358.92 1497.13 3357.13 1480.54 3351.51 1466.5 3342.31 1455.78 3330.55 1448.88 3317 1446.59 3302.18 1448.88 3287.61 1455.78 3273.81 1466.5 3262.05 1480.54 3253.11"/><polygon class="cls-1" points="730.5 960.67 762.67 964.25 792.54 974.48 818.07 991.09 837.73 1012.3 849.98 1037.35 854.32 1063.93 849.98 1090.77 837.73 1115.56 818.07 1137.03 792.54 1153.39 762.67 1163.62 730.5 1167.19 698.59 1163.62 668.72 1153.39 643.2 1137.03 623.54 1115.56 611.03 1090.77 606.94 1063.93 611.03 1037.35 623.54 1012.3 643.2 991.09 668.72 974.48 698.59 964.25 730.5 960.67"/><polygon class="cls-1" points="938.82 3203.01 950.82 3210.93 960.26 3220.9 965.88 3232.91 967.92 3245.44 965.88 3258.22 960.26 3269.97 950.82 3279.94 938.82 3287.87 924.52 3292.72 909.46 3294.26 894.14 3292.72 880.1 3287.87 867.85 3279.94 858.66 3269.97 852.79 3258.22 850.74 3245.44 852.79 3232.91 858.66 3220.9 867.85 3210.93 880.1 3203.01 894.14 3198.15 909.46 3196.62 924.52 3198.15 938.82 3203.01"/><polygon class="cls-1" points="133.64 108.78 424.41 108.78 419.56 140.21 405.01 169.35 381.78 194.66 351.66 213.82 316.68 225.84 279.15 230.18 241.37 225.84 206.4 213.82 176.27 194.66 153.04 169.35 138.49 140.21 133.64 108.78"/><polygon class="cls-1" points="951.33 786.61 918.14 790.19 884.95 786.61 854.06 775.88 827.77 759.01 807.35 736.77 794.58 710.96 790.24 683.35 794.58 655.75 807.35 629.93 827.77 607.95 854.06 590.83 884.95 580.09 918.14 576.51 951.33 580.09 982.22 590.83 1008.77 607.95 1029.19 629.93 1041.95 655.75 1046.3 683.35 1041.95 710.96 1029.19 736.77 1008.77 759.01 982.22 775.88 951.33 786.61"/><polygon class="cls-1" points="780.8 3593.81 786.16 3604.55 787.94 3616.3 786.16 3628.06 780.8 3639.05 772.12 3648.51 760.88 3655.67 747.86 3660.01 733.82 3661.55 719.78 3660.01 706.51 3655.67 695.27 3648.51 686.85 3639.05 681.23 3628.06 679.45 3616.3 681.23 3604.55 686.85 3593.81 695.27 3584.36 706.51 3577.2 719.78 3572.6 733.82 3571.07 747.86 3572.6 760.88 3577.2 772.12 3584.36 780.8 3593.81"/><polygon class="cls-1" points="2165.22 3905.13 2164.2 3915.1 2153.22 3916.63 2141.99 3916.63 2130.76 3915.35 2120.04 3912.8 2109.82 3908.96 2100.38 3903.85 2092.21 3897.46 2085.06 3890.3 2079.19 3882.38 2074.85 3873.69 2072.3 3864.74 2071.28 3855.29 2082.51 3851.96 2094.25 3850.43 2106.25 3850.69 2117.99 3852.73 2129.23 3856.56 2139.18 3861.68 2148.12 3868.58 2155.27 3876.5 2160.63 3885.45 2163.95 3895.16 2165.22 3905.13"/><polygon class="cls-1" points="757.05 2955.08 766.75 2942.05 778.5 2930.03 792.03 2919.55 807.09 2910.61 823.43 2903.2 827.77 2917.76 830.32 2932.59 830.83 2947.67 829.3 2962.49 825.73 2977.32 820.37 2991.63 812.96 3005.43 804.03 3018.47 793.3 3030.48 781.05 3041.47 767.26 3051.18 752.46 3059.62 746.08 3045.31 741.99 3030.23 740.21 3014.64 740.72 2999.3 743.78 2983.96 749.39 2969.14 757.05 2955.08"/><polygon class="cls-1" points="1547.94 1009.24 1512.96 1005.4 1480.54 994.16 1452.71 976.26 1431.27 953 1417.74 925.91 1413.14 897.03 1417.74 867.89 1431.27 840.8 1452.71 817.54 1480.54 799.65 1512.96 788.4 1547.94 784.57 1582.65 788.4 1615.08 799.65 1642.9 817.54 1664.35 840.8 1677.88 867.89 1682.47 897.03 1677.88 925.91 1664.35 953 1642.9 976.26 1615.08 994.16 1582.65 1005.4 1547.94 1009.24"/><polygon class="cls-1" points="1849.94 3220.13 1856.07 3232.4 1858.11 3245.44 1856.07 3258.47 1849.94 3270.74 1840.24 3281.22 1827.73 3289.4 1813.18 3294.51 1797.35 3296.3 1781.78 3294.51 1766.97 3289.4 1754.46 3281.22 1744.76 3270.74 1738.64 3258.47 1736.59 3245.44 1738.64 3232.4 1744.76 3220.13 1754.46 3209.65 1766.97 3201.47 1781.78 3196.36 1797.35 3194.83 1813.18 3196.36 1827.73 3201.47 1840.24 3209.65 1849.94 3220.13"/><polygon class="cls-1" points="1591.59 2374.37 1597.21 2355.45 1620.95 2359.8 1643.67 2367.21 1664.6 2377.44 1683.49 2390.22 1699.58 2405.3 1712.85 2422.16 1722.81 2440.82 1729.45 2460.25 1732.25 2480.44 1731.23 2500.63 1726.64 2520.57 1718.21 2539.74 1696 2533.35 1675.07 2524.66 1655.41 2513.67 1638.05 2500.63 1622.74 2485.81 1610.23 2469.2 1600.27 2451.56 1593.38 2432.9 1589.55 2413.47 1589.04 2393.79 1591.59 2374.37"/><polygon class="cls-1" points="2165.73 4117.53 2159.86 4126.22 2152.46 4134.14 2143.27 4140.79 2132.8 4146.15 2121.57 4149.99 2109.82 4152.03 2097.57 4152.29 2085.57 4151.01 2074.09 4147.94 2075.11 4138.23 2077.91 4128.77 2082.25 4119.83 2088.38 4111.39 2096.04 4103.98 2104.97 4097.59 2114.93 4092.22 2125.65 4088.39 2137.14 4086.09 2148.63 4085.07 2160.37 4085.83 2171.86 4087.88 2171.86 4097.85 2169.82 4107.81 2165.73 4117.53"/><polygon class="cls-1" points="290.13 1023.04 253.12 1019.2 218.65 1007.19 188.78 988.28 166.06 963.49 151.77 934.6 146.91 903.68 151.77 872.75 166.06 843.87 188.78 819.07 218.65 800.16 253.12 788.15 290.13 784.06 327.15 788.15 361.87 800.16 391.48 819.07 414.2 843.87 428.5 872.75 433.35 903.68 428.5 934.6 414.2 963.49 391.48 988.28 361.87 1007.19 327.15 1019.2 290.13 1023.04"/><polygon class="cls-1" points="816.02 2145.36 842.83 2140.76 851.51 2161.2 856.87 2182.16 858.4 2203.89 856.36 2225.36 850.49 2246.32 841.04 2266.51 828.28 2285.17 812.45 2302.29 794.07 2317.37 772.88 2329.9 750.16 2339.86 725.65 2347.02 712.89 2327.08 704.46 2305.36 700.38 2283.12 700.89 2260.37 706 2238.14 715.44 2216.92 729.23 2197.24 746.59 2179.86 767.26 2165.04 790.75 2153.53 816.02 2145.36"/><polygon class="cls-1" points="1360.3 723.48 1389.4 734.47 1376.64 757.22 1360.56 778.69 1341.41 798.12 1319.45 815.5 1295.2 830.58 1268.65 842.84 1240.57 852.3 1211.47 858.69 1181.34 862.01 1151.22 862.27 1121.1 859.2 1091.74 853.32 1099.91 827.25 1112.67 802.72 1130.03 780.22 1151.47 760.29 1176.49 743.42 1204.06 730.13 1233.93 720.41 1265.33 715.05 1297.5 713.51 1329.15 716.32 1360.3 723.48"/><polygon class="cls-1" points="1356.47 630.19 1323.28 626.61 1292.39 615.88 1265.84 599.01 1245.42 576.77 1232.65 551.21 1228.32 523.35 1232.65 495.75 1245.42 469.93 1265.84 447.95 1292.39 430.82 1323.28 420.09 1356.47 416.51 1389.66 420.09 1420.55 430.82 1446.84 447.95 1467.27 469.93 1480.03 495.75 1484.37 523.35 1480.03 551.21 1467.27 576.77 1446.84 599.01 1420.55 615.88 1389.66 626.61 1356.47 630.19"/><polygon class="cls-1" points="1515.52 238.87 1480.54 226.86 1450.42 207.69 1427.18 182.39 1412.63 153.25 1407.78 121.81 1698.56 121.81 1693.71 153.25 1679.15 182.39 1656.18 207.69 1626.05 226.86 1590.83 238.87 1553.3 243.22 1515.52 238.87"/><polygon class="cls-1" points="656.73 864.83 624.3 863.04 592.39 856.9 562.01 846.93 533.93 833.39 508.4 816.52 486.19 796.58 467.81 774.09 453.77 749.55 444.33 723.48 474.7 716.58 505.85 713.26 537.25 713 568.4 716.32 598.77 722.97 627.88 732.68 655.45 745.72 680.47 761.31 703.19 779.71 722.59 800.16 738.93 822.65 751.44 846.68 721.06 856.65 689.4 862.78 656.73 864.83"/><polygon class="cls-1" points="1643.92 1294.99 1615.08 1305.73 1602.31 1281.44 1593.89 1256.14 1590.06 1230.07 1590.57 1203.74 1595.42 1177.67 1604.61 1152.63 1618.14 1128.86 1635.5 1106.87 1656.43 1087.19 1680.43 1070.32 1707.24 1056.27 1735.83 1045.53 1748.59 1069.56 1757.02 1095.12 1760.85 1121.19 1760.59 1147.51 1755.49 1173.33 1746.3 1198.63 1732.77 1222.4 1715.4 1244.13 1694.47 1263.81 1670.47 1280.93 1643.92 1294.99"/><polygon class="cls-1" points="2398.05 2785.88 2373.03 2783.07 2350.31 2774.12 2332.18 2759.55 2320.44 2740.89 2316.35 2719.93 2320.44 2699.23 2332.18 2680.57 2350.31 2666 2373.03 2657.06 2398.05 2654.25 2422.81 2658.34 2422.81 2781.53 2398.05 2785.88"/><polygon class="cls-1" points="1993.16 1277.61 2020.47 1269.18 2049.07 1264.58 2078.17 1263.81 2107.02 1267.39 2134.59 1274.8 2160.63 1285.79 2184.11 1300.36 2204.28 1317.74 2220.62 1337.68 2233.13 1359.91 2240.79 1383.17 2215 1388.28 2188.71 1390.84 2161.9 1391.1 2135.61 1388.54 2109.57 1383.68 2084.55 1376.53 2060.55 1366.81 2038.09 1355.06 2017.41 1341.25 1998.52 1325.66 1981.93 1308.28 1967.88 1289.62 1993.16 1277.61"/><polygon class="cls-1" points="2390.64 3808.26 2375.07 3803.4 2362.3 3794.71 2354.14 3782.7 2351.33 3769.15 2354.14 3755.35 2362.3 3743.34 2375.07 3734.65 2390.64 3729.79 2407.24 3729.79 2422.81 3734.65 2422.81 3803.4 2407.24 3808.26 2390.64 3808.26"/><polygon class="cls-1" points="306.73 2774.63 288.86 2772.59 272.01 2766.96 257.71 2757.76 246.73 2745.75 239.59 2731.69 237.29 2716.61 239.59 2701.53 246.73 2687.73 257.71 2675.72 272.01 2666.51 288.86 2660.64 306.73 2658.59 324.85 2660.64 341.44 2666.51 356 2675.72 366.97 2687.73 373.87 2701.53 376.16 2716.61 373.87 2731.69 366.97 2745.75 356 2757.76 341.44 2766.96 324.85 2772.59 306.73 2774.63"/><polygon class="cls-1" points="1797.35 1361.19 1823.39 1364.26 1847.39 1372.44 1868.07 1385.73 1883.89 1402.85 1893.85 1423.05 1897.17 1444.52 1893.85 1466.24 1883.89 1486.18 1868.07 1503.56 1847.39 1516.85 1823.39 1525.03 1797.35 1527.84 1771.57 1525.03 1747.57 1516.85 1726.89 1503.56 1711.07 1486.18 1701.11 1466.24 1697.54 1444.52 1701.11 1423.05 1711.07 1402.85 1726.89 1385.73 1747.57 1372.44 1771.57 1364.26 1797.35 1361.19"/><polygon class="cls-1" points="2220.88 641.43 2187.43 643.22 2153.99 641.18 2121.31 635.81 2089.66 626.61 2059.79 614.09 2032.22 598.24 2007.45 579.58 1985.76 558.37 1967.63 534.85 1953.33 509.55 1984.73 498.81 2017.92 492.17 2051.62 489.1 2085.83 490.38 2119.27 495.49 2151.44 504.69 2181.82 517.73 2209.39 534.09 2234.15 553.51 2255.34 575.75 2272.44 600.28 2285.21 626.61 2253.55 635.81 2220.88 641.43"/><polygon class="cls-1" points="699.36 1927.59 673.32 1934.75 646.26 1938.07 618.94 1938.07 591.88 1934.49 565.84 1927.59 541.59 1917.11 519.38 1903.82 499.98 1887.72 483.89 1869.31 471.39 1848.87 462.96 1827.4 487.73 1821.26 513 1817.94 538.78 1817.17 564.57 1818.96 589.59 1823.56 614.09 1830.46 637.07 1839.92 658.77 1851.68 678.42 1865.48 696.04 1881.07 711.1 1898.45 723.61 1917.37 699.36 1927.59"/><polygon class="cls-1" points="2051.88 867.64 2021.24 866.87 1991.12 862.52 1961.76 855.11 1972.22 830.06 1987.03 806.55 2005.67 785.34 2028.13 766.42 2053.66 750.83 2081.74 738.31 2111.87 729.62 2143.01 724.5 2174.67 723.74 2206.32 726.55 2236.96 733.71 2266.06 744.18 2252.79 767.19 2235.94 788.66 2216.03 807.83 2193.3 824.95 2168.03 839.52 2140.97 851.28 2112.12 859.97 2082.25 865.34 2051.88 867.64"/><polygon class="cls-1" points="1485.13 1282.47 1477.48 1305.73 1449.14 1296.53 1422.85 1284 1399.1 1268.41 1378.42 1250.01 1361.07 1229.3 1347.79 1206.56 1338.6 1182.53 1333.75 1157.74 1333.49 1132.43 1337.58 1107.38 1346.26 1083.1 1359.02 1060.36 1383.79 1072.62 1406.51 1087.19 1427.18 1104.06 1445.06 1122.72 1460.37 1142.91 1472.63 1164.64 1481.82 1187.39 1487.69 1210.9 1490.24 1234.67 1489.22 1258.7 1485.13 1282.47"/><polygon class="cls-1" points="1090.46 3044.28 1086.89 3058.6 1070.8 3051.18 1055.74 3042.24 1042.47 3031.76 1030.98 3019.75 1021.53 3006.71 1014.13 2992.65 1009.28 2977.83 1006.73 2962.75 1006.73 2947.41 1009.02 2932.08 1013.87 2917.25 1021.02 2903.2 1034.55 2912.4 1047.06 2922.62 1058.04 2933.87 1067.74 2946.14 1075.91 2958.91 1082.55 2972.46 1087.65 2986.26 1090.97 3000.58 1092.5 3015.15 1092.5 3029.72 1090.46 3044.28"/><polygon class="cls-1" points="1788.67 4044.17 1774.63 4042.64 1761.61 4038.04 1750.38 4030.88 1741.7 4021.68 1736.34 4010.69 1734.55 3998.93 1736.34 3987.17 1741.7 3976.18 1750.38 3966.98 1761.61 3959.82 1774.63 3955.22 1788.67 3953.69 1802.71 3955.22 1815.99 3959.82 1827.22 3966.98 1835.9 3976.18 1841.26 3987.17 1843.05 3998.93 1841.26 4010.69 1835.9 4021.68 1827.22 4030.88 1815.99 4038.04 1802.71 4042.64 1788.67 4044.17"/><polygon class="cls-1" points="187 567.82 180.87 565.01 175.76 561.43 171.68 556.83 168.87 551.72 167.59 546.35 167.59 318.11 187 332.68 204.35 349.03 219.42 367.18 231.93 386.35 241.63 406.8 248.52 427.76 252.35 449.48 253.37 471.46 251.33 493.19 246.22 514.66 238.31 535.62 227.59 555.55 223.76 560.16 218.91 564.25 213.29 567.31 206.91 569.1 200.01 569.87 193.38 569.36 187 567.82"/><polygon class="cls-1" points="1791.48 2267.79 1768.51 2265.23 1747.06 2257.82 1728.68 2246.06 1714.38 2230.72 1705.45 2212.83 1702.39 2193.66 1705.45 2174.24 1714.38 2156.35 1728.68 2141.01 1747.06 2129.25 1768.51 2121.84 1791.48 2119.28 1814.46 2121.84 1835.9 2129.25 1854.54 2141.01 1868.58 2156.35 1877.51 2174.24 1880.58 2193.66 1877.51 2212.83 1868.58 2230.72 1854.54 2246.06 1835.9 2257.82 1814.46 2265.23 1791.48 2267.79"/><polygon class="cls-1" points="1345.24 1864.97 1326.6 1881.84 1305.92 1896.41 1282.95 1908.67 1258.18 1918.39 1232.14 1925.29 1205.34 1929.38 1178.02 1930.4 1150.96 1928.61 1124.16 1923.76 1098.63 1916.09 1108.33 1893.85 1121.86 1872.89 1139.47 1854.23 1159.9 1837.88 1183.38 1824.33 1209.17 1813.85 1236.23 1806.95 1264.57 1803.63 1292.9 1803.88 1320.98 1807.97 1348.05 1815.38 1373.32 1826.37 1360.81 1846.57 1345.24 1864.97"/><polygon class="cls-1" points="1437.4 2308.43 1446.59 2326.83 1449.65 2346.51 1446.59 2366.19 1437.4 2384.59 1423.1 2400.18 1404.21 2412.45 1382.25 2420.12 1358.51 2422.68 1335.03 2420.12 1313.07 2412.45 1294.18 2400.18 1279.63 2384.59 1270.44 2366.19 1267.38 2346.51 1270.44 2326.83 1279.63 2308.43 1294.18 2292.83 1313.07 2280.57 1335.03 2273.15 1358.51 2270.34 1382.25 2273.15 1404.21 2280.57 1423.1 2292.83 1437.4 2308.43"/><polygon class="cls-1" points="1273.76 2864.86 1255.89 2866.9 1237.51 2866.64 1219.64 2864.34 1202.28 2859.74 1185.94 2852.84 1170.88 2844.15 1157.6 2833.93 1146.37 2821.92 1137.43 2808.63 1130.8 2794.57 1147.39 2789.71 1164.75 2786.9 1182.36 2785.88 1199.98 2786.64 1217.34 2789.45 1233.93 2794.06 1249.76 2800.45 1264.57 2808.63 1278.1 2818.08 1289.84 2829.07 1299.8 2841.09 1307.96 2854.38 1291.37 2860.51 1273.76 2864.86"/><polygon class="cls-1" points="1302.09 2609.52 1289.59 2623.57 1275.03 2636.1 1258.44 2646.58 1240.31 2655.01 1220.91 2661.4 1200.49 2665.24 1179.81 2666.77 1158.88 2665.75 1138.45 2662.43 1118.8 2656.55 1125.69 2639.93 1135.13 2624.34 1147.39 2610.03 1161.94 2597.25 1178.53 2586.51 1196.91 2578.08 1216.57 2571.69 1236.99 2567.85 1258.18 2566.58 1279.12 2567.85 1299.54 2571.69 1319.2 2578.08 1312.05 2594.44 1302.09 2609.52"/><polygon class="cls-1" points="528.57 3313.43 542.61 3310.87 556.91 3309.85 571.2 3310.61 585.25 3312.91 598.77 3316.75 611.54 3322.11 623.54 3328.76 634.26 3336.43 643.45 3345.63 651.36 3355.6 657.49 3366.33 662.09 3377.58 648.05 3380.14 633.75 3381.16 619.45 3380.39 605.41 3378.09 591.88 3374.26 578.86 3369.14 567.12 3362.5 556.4 3354.58 546.95 3345.37 539.04 3335.41 532.91 3324.67 528.57 3313.43"/><polygon class="cls-1" points="906.91 3743.34 925.03 3744.61 942.14 3749.73 956.94 3758.16 968.69 3769.66 976.6 3783.21 979.92 3798.29 978.64 3813.37 972.52 3827.43 962.3 3839.95 948.52 3849.92 932.18 3856.31 914.31 3859.12 896.44 3858.1 879.08 3852.99 864.27 3844.55 852.53 3833.05 844.62 3819.25 841.3 3804.42 842.58 3789.34 848.7 3775.03 858.91 3762.76 872.7 3752.79 889.04 3746.15 906.91 3743.34"/><polygon class="cls-1" points="1208.15 3382.44 1194.11 3382.44 1180.07 3380.65 1166.28 3377.58 1153.52 3372.72 1158.37 3360.97 1165.26 3349.97 1174.45 3340.01 1185.68 3331.57 1198.19 3324.67 1211.98 3319.56 1226.27 3316.49 1241.34 3315.47 1256.4 3316.49 1270.95 3319.56 1284.48 3324.67 1296.99 3331.57 1290.35 3342.05 1281.93 3351.51 1272.22 3359.94 1260.99 3367.36 1248.99 3373.23 1235.97 3377.84 1222.19 3380.9 1208.15 3382.44"/><polygon class="cls-1" points="2125.4 3172.59 2108.55 3171.57 2092.21 3168.5 2076.64 3163.14 2062.34 3155.72 2049.58 3146.52 2038.86 3135.79 2030.43 3123.52 2024.3 3110.48 2020.98 3096.68 2036.3 3092.59 2052.39 3090.29 2068.47 3090.03 2084.55 3091.57 2100.13 3094.89 2115.19 3100.26 2128.97 3107.16 2141.48 3115.59 2152.46 3125.56 2161.65 3136.81 2168.8 3148.82 2173.9 3161.6 2158.33 3167.48 2142.25 3171.06 2125.4 3172.59"/><polygon class="cls-1" points="580.39 2150.72 553.84 2152.51 527.55 2151.24 501.51 2146.89 476.49 2139.99 483.64 2117.5 494.87 2096.03 510.44 2076.6 529.34 2059.48 551.29 2045.16 576.05 2034.17 602.35 2026.5 629.92 2022.67 658 2022.41 685.57 2025.99 711.87 2033.4 736.63 2044.4 725.91 2064.59 712.12 2083.25 695.53 2100.37 676.13 2115.45 654.43 2128.23 631.2 2138.45 606.18 2146.12 580.39 2150.72"/><polygon class="cls-1" points="2403.92 2067.4 2376.86 2059.99 2353.11 2046.95 2334.99 2028.81 2323.25 2007.08 2319.42 1983.82 2323.25 1960.31 2334.99 1938.58 2353.11 1920.43 2376.86 1907.4 2403.92 1900.24 2432.25 1899.47 2432.25 2067.91 2403.92 2067.4"/><polygon class="cls-1" points="889.29 3959.57 900.78 3955.74 913.03 3954.2 925.54 3955.74 937.03 3959.57 946.99 3965.96 954.39 3974.14 959.24 3983.85 960.77 3994.07 959.24 4004.55 954.39 4014.01 946.99 4022.19 937.03 4028.58 925.54 4032.67 913.03 4033.95 900.78 4032.67 889.29 4028.58 879.34 4022.19 871.68 4014.01 867.08 4004.55 865.3 3994.07 867.08 3983.85 871.68 3974.14 879.34 3965.96 889.29 3959.57"/><polygon class="cls-1" points="919.93 2082.22 889.04 2078.65 860.19 2068.68 835.43 2052.83 816.54 2032.38 804.54 2008.36 800.45 1982.54 804.54 1956.73 816.54 1932.7 835.43 1912 860.19 1896.15 889.04 1886.18 919.93 1882.86 950.82 1886.18 979.66 1896.15 1004.43 1912 1023.32 1932.7 1035.32 1956.73 1039.4 1982.54 1035.32 2008.36 1023.32 2032.38 1004.43 2052.83 979.66 2068.68 950.82 2078.65 919.93 2082.22"/><polygon class="cls-1" points="2243.09 2914.44 2253.04 2900.89 2269.38 2907.28 2284.7 2915.72 2298.23 2925.69 2310.23 2937.19 2319.93 2949.71 2327.59 2963.52 2332.69 2978.08 2335.5 2993.16 2335.76 3008.24 2333.2 3023.32 2328.35 3037.89 2320.95 3051.7 2302.82 3047.09 2285.97 3039.94 2270.66 3030.48 2257.38 3019.24 2246.41 3005.94 2238.24 2991.63 2233.13 2976.55 2230.83 2960.7 2231.85 2944.86 2235.94 2929.27 2243.09 2914.44"/><polygon class="cls-1" points="1710.81 2973.74 1705.45 2988.82 1697.03 3003.13 1686.05 3016.17 1672.52 3027.41 1656.94 3036.62 1639.84 3043.52 1621.71 3048.12 1602.82 3050.16 1592.61 3035.34 1585.97 3019.24 1582.91 3002.62 1584.19 2985.5 1589.04 2969.14 1597.72 2953.8 1609.97 2940 1624.78 2928.5 1642.14 2919.81 1661.28 2913.67 1681.45 2911.12 1701.88 2911.63 1708.77 2926.45 1712.6 2942.05 1713.36 2957.89 1710.81 2973.74"/><polygon class="cls-1" points="344 1263.3 339.4 1241.06 338.89 1218.31 341.95 1195.82 348.85 1173.84 359.57 1153.14 373.61 1133.45 390.71 1116.08 410.63 1100.48 432.84 1087.7 457.35 1077.48 483.13 1070.32 491.3 1091.79 495.64 1114.29 496.4 1137.03 493.09 1159.53 486.19 1181.51 475.73 1202.21 461.69 1221.64 444.58 1239.27 424.67 1254.61 402.2 1267.64 377.95 1277.87 352.17 1285.02 344 1263.3"/><polygon class="cls-2" points="196.7 1984.84 200.01 2006.31 209.97 2026.5 225.8 2043.63 246.48 2056.92 270.48 2065.36 296.51 2068.17 322.3 2065.36 346.3 2056.92 366.97 2043.63 382.8 2026.5 392.76 2006.31 396.33 1984.84 392.76 1963.12 382.8 1943.18 366.97 1925.8 346.3 1912.51 322.3 1904.33 296.51 1901.52 270.48 1904.33 246.48 1912.51 225.8 1925.8 209.97 1943.18 200.01 1963.12 196.7 1984.84"/><polygon class="cls-2" points="563.29 2382.04 572.23 2364.14 575.29 2344.98 572.23 2325.81 563.29 2307.91 549.25 2292.58 530.61 2280.82 509.17 2273.41 486.19 2270.85 463.22 2273.41 441.77 2280.82 423.39 2292.58 409.1 2307.91 400.16 2325.81 397.35 2344.98 400.16 2364.14 409.1 2382.04 423.39 2397.63 441.77 2409.39 463.22 2416.8 486.19 2419.35 509.17 2416.8 530.61 2409.39 549.25 2397.63 563.29 2382.04"/><polygon class="cls-2" points="1023.32 1932.7 1004.43 1912 979.66 1896.15 950.82 1886.18 919.93 1882.86 889.04 1886.18 860.19 1896.15 835.43 1912 816.54 1932.7 804.54 1956.73 800.45 1982.54 804.54 2008.36 816.54 2032.38 835.43 2052.83 860.19 2068.68 889.04 2078.65 919.93 2082.22 950.82 2078.65 979.66 2068.68 1004.43 2052.83 1023.32 2032.38 1035.32 2008.36 1039.4 1982.54 1035.32 1956.73 1023.32 1932.7"/><polygon class="cls-2" points="306.73 2658.59 288.86 2660.64 272.01 2666.51 257.71 2675.72 246.73 2687.73 239.59 2701.53 237.29 2716.61 239.59 2731.69 246.73 2745.75 257.71 2757.76 272.01 2766.96 288.86 2772.59 306.73 2774.63 324.85 2772.59 341.44 2766.96 356 2757.76 366.97 2745.75 373.87 2731.69 376.16 2716.61 373.87 2701.53 366.97 2687.73 356 2675.72 341.44 2666.51 324.85 2660.64 306.73 2658.59"/><polygon class="cls-2" points="859.42 2682.11 838.75 2695.4 822.92 2712.52 812.96 2732.71 809.64 2754.18 812.96 2775.91 822.92 2795.84 838.75 2813.23 859.42 2826.52 883.68 2834.7 909.46 2837.51 935.25 2834.7 959.24 2826.52 979.92 2813.23 995.75 2795.84 1005.96 2775.91 1009.28 2754.18 1005.96 2732.71 995.75 2712.52 979.92 2695.4 959.24 2682.11 935.25 2673.93 909.46 2670.86 883.68 2673.93 859.42 2682.11"/><polygon class="cls-2" points="699.36 1927.59 723.61 1917.37 711.1 1898.45 696.04 1881.07 678.42 1865.48 658.77 1851.68 637.07 1839.92 614.09 1830.46 589.59 1823.56 564.57 1818.96 538.78 1817.17 513 1817.94 487.73 1821.26 462.96 1827.4 471.39 1848.87 483.89 1869.31 499.98 1887.72 519.38 1903.82 541.59 1917.11 565.84 1927.59 591.88 1934.49 618.94 1938.07 646.26 1938.07 673.32 1934.75 699.36 1927.59"/><polygon class="cls-2" points="712.12 2083.25 725.91 2064.59 736.63 2044.4 711.87 2033.4 685.57 2025.99 658 2022.41 629.92 2022.67 602.35 2026.5 576.05 2034.17 551.29 2045.16 529.34 2059.48 510.44 2076.6 494.87 2096.03 483.64 2117.5 476.49 2139.99 501.51 2146.89 527.55 2151.24 553.84 2152.51 580.39 2150.72 606.18 2146.12 631.2 2138.45 654.43 2128.23 676.13 2115.45 695.53 2100.37 712.12 2083.25"/><polygon class="cls-2" points="856.11 1356.85 831.34 1372.69 812.45 1393.4 800.45 1417.42 796.37 1443.24 800.45 1469.05 812.45 1493.08 831.34 1513.78 856.11 1529.37 884.95 1539.34 915.84 1542.92 946.73 1539.34 975.58 1529.37 1000.34 1513.78 1019.24 1493.08 1031.23 1469.05 1035.32 1443.24 1031.23 1417.42 1019.24 1393.4 1000.34 1372.69 975.58 1356.85 946.73 1346.88 915.84 1343.55 884.95 1346.88 856.11 1356.85"/><polygon class="cls-2" points="702.17 2803.26 684.81 2797.38 666.94 2793.8 648.56 2792.27 630.18 2792.52 611.79 2795.33 594.18 2799.93 577.59 2806.58 562.01 2815.27 548.23 2825.24 536.23 2837 526.27 2850.03 518.36 2864.09 535.72 2869.71 553.59 2873.55 571.97 2875.08 590.35 2874.57 608.73 2872.01 626.35 2867.41 642.94 2860.51 658.26 2852.08 672.3 2841.85 684.3 2830.09 694.25 2817.32 702.17 2803.26"/><polygon class="cls-2" points="812.96 3005.43 804.03 3018.47 793.3 3030.48 781.05 3041.47 767.26 3051.18 752.46 3059.62 746.08 3045.31 741.99 3030.23 740.21 3014.64 740.72 2999.3 743.78 2983.96 749.39 2969.14 757.05 2955.08 766.75 2942.05 778.5 2930.03 792.03 2919.55 807.09 2910.61 823.43 2903.2 827.77 2917.76 830.32 2932.59 830.83 2947.67 829.3 2962.49 825.73 2977.32 820.37 2991.63 812.96 3005.43"/><polygon class="cls-2" points="1017.7 1647.46 1001.62 1667.9 989.11 1689.89 979.92 1713.14 974.81 1737.43 973.54 1761.71 976.35 1785.99 982.73 1810.02 993.2 1832.76 1017.7 1820.49 1040.42 1805.93 1060.85 1789.31 1078.72 1770.65 1093.78 1750.46 1106.03 1728.99 1114.97 1706.24 1120.58 1682.98 1122.88 1659.21 1121.86 1635.44 1117.52 1611.93 1109.86 1588.93 1083.57 1599.4 1059.06 1612.95 1037.11 1629.05 1017.7 1647.46"/><polygon class="cls-2" points="1206.62 2043.37 1232.91 2048.23 1257.93 2055.9 1281.67 2066.38 1303.63 2079.16 1323.54 2093.98 1340.9 2111.11 1355.45 2129.76 1367.19 2149.96 1341.41 2156.6 1314.86 2160.69 1288.05 2161.71 1261.25 2159.67 1234.7 2154.81 1209.42 2147.14 1185.68 2136.67 1163.73 2123.63 1143.82 2108.3 1126.71 2090.91 1112.41 2072 1101.18 2051.55 1126.97 2045.16 1153.26 2041.84 1180.07 2041.07 1206.62 2043.37"/><polygon class="cls-2" points="716.72 1699.6 724.12 1722.09 734.59 1743.56 748.12 1763.75 764.2 1782.41 782.84 1799.54 804.03 1814.62 827 1827.65 836.96 1805.67 843.6 1782.92 846.66 1759.66 846.4 1736.15 842.32 1713.14 835.17 1690.4 824.45 1668.67 810.41 1648.48 793.56 1629.57 773.9 1612.95 752.2 1598.13 728.21 1585.86 719.53 1607.84 713.91 1630.59 711.61 1653.59 712.63 1676.85 716.72 1699.6"/><polygon class="cls-2" points="1291.37 2860.51 1273.76 2864.86 1255.89 2866.9 1237.51 2866.64 1219.64 2864.34 1202.28 2859.74 1185.94 2852.84 1170.88 2844.15 1157.6 2833.93 1146.37 2821.92 1137.43 2808.63 1130.8 2794.57 1147.39 2789.71 1164.75 2786.9 1182.36 2785.88 1199.98 2786.64 1217.34 2789.45 1233.93 2794.06 1249.76 2800.45 1264.57 2808.63 1278.1 2818.08 1289.84 2829.07 1299.8 2841.09 1307.96 2854.38 1291.37 2860.51"/><polygon class="cls-2" points="1090.46 3044.28 1092.5 3029.72 1092.5 3015.15 1090.97 3000.58 1087.65 2986.26 1082.55 2972.46 1075.91 2958.91 1067.74 2946.14 1058.04 2933.87 1047.06 2922.62 1034.55 2912.4 1021.02 2903.2 1013.87 2917.25 1009.02 2932.08 1006.73 2947.41 1006.73 2962.75 1009.28 2977.83 1014.13 2992.65 1021.53 3006.71 1030.98 3019.75 1042.47 3031.76 1055.74 3042.24 1070.8 3051.18 1086.89 3058.6 1090.46 3044.28"/><polygon class="cls-2" points="828.28 2285.17 812.45 2302.29 794.07 2317.37 772.88 2329.9 750.16 2339.86 725.65 2347.02 712.89 2327.08 704.46 2305.36 700.38 2283.12 700.89 2260.37 706 2238.14 715.44 2216.92 729.23 2197.24 746.59 2179.86 767.26 2165.04 790.75 2153.53 816.02 2145.36 842.83 2140.76 851.51 2161.2 856.87 2182.16 858.4 2203.89 856.36 2225.36 850.49 2246.32 841.04 2266.51 828.28 2285.17"/><polygon class="cls-2" points="981.96 2205.93 983.75 2184.21 989.11 2163.25 997.79 2143.06 1020.77 2152 1042.21 2163.5 1061.61 2177.3 1078.72 2193.15 1093.27 2210.53 1105.01 2229.19 1113.69 2249.13 1119.31 2270.09 1121.61 2291.05 1120.58 2312.26 1116.24 2333.22 1108.84 2353.67 1085.1 2345.23 1062.63 2334.24 1042.47 2320.95 1024.85 2305.36 1009.79 2287.72 997.79 2268.55 988.86 2248.36 983.75 2227.4 981.96 2205.93"/><polygon class="cls-2" points="1305.92 1896.41 1326.6 1881.84 1345.24 1864.97 1360.81 1846.57 1373.32 1826.37 1348.05 1815.38 1320.98 1807.97 1292.9 1803.88 1264.57 1803.63 1236.23 1806.95 1209.17 1813.85 1183.38 1824.33 1159.9 1837.88 1139.47 1854.23 1121.86 1872.89 1108.33 1893.85 1098.63 1916.09 1124.16 1923.76 1150.96 1928.61 1178.02 1930.4 1205.34 1929.38 1232.14 1925.29 1258.18 1918.39 1282.95 1908.67 1305.92 1896.41"/><polygon class="cls-2" points="1749.87 1746.37 1747.06 1723.11 1740.17 1700.11 1729.45 1678.38 1715.15 1658.19 1697.28 1639.79 1676.6 1623.94 1653.37 1610.65 1627.84 1600.43 1601.04 1593.27 1589.8 1615.25 1582.65 1638.77 1580.1 1662.79 1582.14 1686.82 1588.53 1710.08 1599.25 1732.57 1614.31 1753.27 1632.69 1771.68 1654.65 1787.52 1679.15 1800.05 1705.7 1809.5 1733.79 1815.38 1742.98 1793.15 1748.59 1769.89 1749.87 1746.37"/><polygon class="cls-2" points="1699.58 2405.3 1712.85 2422.16 1722.81 2440.82 1729.45 2460.25 1732.25 2480.44 1731.23 2500.63 1726.64 2520.57 1718.21 2539.74 1696 2533.35 1675.07 2524.66 1655.41 2513.67 1638.05 2500.63 1622.74 2485.81 1610.23 2469.2 1600.27 2451.56 1593.38 2432.9 1589.55 2413.47 1589.04 2393.79 1591.59 2374.37 1597.21 2355.45 1620.95 2359.8 1643.67 2367.21 1664.6 2377.44 1683.49 2390.22 1699.58 2405.3"/><polygon class="cls-2" points="2151.18 2043.63 2171.09 2054.88 2188.97 2068.42 2203.77 2084.52 2215.26 2102.16 2223.43 2121.33 2202.75 2132.32 2180.28 2140.24 2156.54 2145.1 2132.04 2146.38 2107.78 2144.33 2084.04 2139.22 2061.83 2130.79 2041.66 2119.28 2024.05 2105.23 2009.24 2088.87 1998.01 2070.72 1990.61 2051.3 2011.28 2040.82 2033.75 2033.4 2057.49 2029.06 2081.49 2027.78 2105.74 2029.83 2128.97 2035.19 2151.18 2043.63"/><polygon class="cls-2" points="1930.87 2368.75 1913.76 2382.55 1898.7 2398.14 1885.94 2415.01 1875.73 2432.9 1867.81 2451.81 1862.71 2471.49 1860.15 2491.18 1860.41 2511.11 1863.47 2531.05 1869.34 2550.47 1890.53 2540.76 1910.44 2529 1928.32 2515.46 1944.14 2499.87 1957.16 2483 1967.88 2464.85 1975.8 2445.68 1980.65 2425.74 1982.69 2405.55 1981.42 2385.36 1977.33 2365.42 1970.18 2346 1949.76 2356.48 1930.87 2368.75"/><polygon class="cls-2" points="2188.97 2595.46 2196.88 2579.36 2176.97 2573.22 2156.29 2569.64 2135.1 2568.37 2113.91 2569.9 2093.23 2573.73 2073.57 2580.12 2055.19 2589.07 2038.35 2599.8 2023.79 2612.58 2011.54 2627.15 2001.84 2642.74 1995.2 2659.61 2015.11 2664.72 2035.54 2667.54 2056.22 2667.79 2076.89 2666 2097.32 2661.91 2116.46 2655.52 2134.59 2646.83 2151.18 2636.61 2165.99 2624.34 2178.75 2610.54 2188.97 2595.46"/><polygon class="cls-2" points="2398.05 2785.88 2373.03 2783.07 2350.31 2774.12 2332.18 2759.55 2320.44 2740.89 2316.35 2719.93 2320.44 2699.23 2332.18 2680.57 2350.31 2666 2373.03 2657.06 2398.05 2654.25 2422.81 2658.34 2422.81 2781.53 2398.05 2785.88"/><polygon class="cls-2" points="2246.41 3005.94 2257.38 3019.24 2270.66 3030.48 2285.97 3039.94 2302.82 3047.09 2320.95 3051.7 2328.35 3037.89 2333.2 3023.32 2335.76 3008.24 2335.5 2993.16 2332.69 2978.08 2327.59 2963.52 2319.93 2949.71 2310.23 2937.19 2298.23 2925.69 2284.7 2915.72 2269.38 2907.28 2253.04 2900.89 2243.09 2914.44 2235.94 2929.27 2231.85 2944.86 2230.83 2960.7 2233.13 2976.55 2238.24 2991.63 2246.41 3005.94"/><polygon class="cls-2" points="1151.73 1264.58 1123.39 1268.92 1096.08 1276.59 1106.54 1298.06 1120.33 1318.25 1136.92 1336.91 1156.07 1353.52 1177.77 1367.84 1201.51 1380.11 1226.78 1389.56 1253.33 1396.21 1280.9 1399.79 1308.48 1400.81 1336.3 1398.76 1363.36 1393.65 1355.45 1370.65 1343.71 1348.67 1328.13 1328.47 1309.24 1310.33 1287.54 1294.99 1263.04 1282.21 1236.74 1272.5 1208.91 1266.37 1180.32 1263.55 1151.73 1264.58"/><polygon class="cls-2" points="2159.1 1486.94 2186.41 1488.22 2212.96 1492.57 2238.49 1500.23 2227.77 1520.17 2214.24 1539.09 2197.64 1556.21 2179.01 1571.29 2158.07 1584.58 2135.1 1595.57 2111.1 1604.01 2085.83 1609.88 2059.79 1613.21 2033.49 1613.46 2007.45 1611.42 1981.93 1606.31 1990.1 1584.58 2001.84 1564.39 2017.16 1545.47 2035.79 1528.86 2056.98 1514.55 2080.47 1503.05 2105.49 1494.36 2132.04 1488.99 2159.1 1486.94"/><polygon class="cls-2" points="2204.28 1317.74 2184.11 1300.36 2160.63 1285.79 2134.59 1274.8 2107.02 1267.39 2078.17 1263.81 2049.07 1264.58 2020.47 1269.18 1993.16 1277.61 1967.88 1289.62 1981.93 1308.28 1998.52 1325.66 2017.41 1341.25 2038.09 1355.06 2060.55 1366.81 2084.55 1376.53 2109.57 1383.68 2135.61 1388.54 2161.9 1391.1 2188.71 1390.84 2215 1388.28 2240.79 1383.17 2233.13 1359.91 2220.62 1337.68 2204.28 1317.74"/><polygon class="cls-2" points="2290.82 1614.23 2267.34 1630.59 2247.43 1649.76 2231.09 1671.48 2219.09 1694.74 2211.18 1719.54 2208.11 1744.84 2209.39 1770.14 2215.51 1795.19 2225.98 1818.96 2240.79 1841.2 2266.32 1829.18 2289.55 1814.11 2310.23 1796.98 2328.1 1777.56 2342.9 1756.6 2354.39 1733.85 2362.05 1710.33 2366.14 1686.05 2366.39 1661.77 2363.07 1637.49 2355.67 1613.72 2344.95 1590.97 2316.61 1600.94 2290.82 1614.23"/><polygon class="cls-2" points="617.92 2565.04 598.01 2560.44 577.33 2558.65 556.65 2559.68 536.49 2563.51 517.34 2570.16 499.72 2579.1 507.89 2594.44 518.36 2608.75 531.38 2621.53 546.44 2632.52 563.29 2641.47 581.67 2648.37 600.82 2652.97 620.73 2655.01 640.9 2654.76 660.55 2651.95 679.7 2646.83 697.57 2639.16 691.19 2622.81 681.49 2607.47 668.98 2593.67 653.92 2581.91 636.81 2572.2 617.92 2565.04"/><polygon class="cls-2" points="1446.59 2326.83 1437.4 2308.43 1423.1 2292.83 1404.21 2280.57 1382.25 2273.15 1358.51 2270.34 1335.03 2273.15 1313.07 2280.57 1294.18 2292.83 1279.63 2308.43 1270.44 2326.83 1267.38 2346.51 1270.44 2366.19 1279.63 2384.59 1294.18 2400.18 1313.07 2412.45 1335.03 2420.12 1358.51 2422.68 1382.25 2420.12 1404.21 2412.45 1423.1 2400.18 1437.4 2384.59 1446.59 2366.19 1449.65 2346.51 1446.59 2326.83"/><polygon class="cls-2" points="1220.91 2661.4 1240.31 2655.01 1258.44 2646.58 1275.03 2636.1 1289.59 2623.57 1302.09 2609.52 1312.05 2594.44 1319.2 2578.08 1299.54 2571.69 1279.12 2567.85 1258.18 2566.58 1236.99 2567.85 1216.57 2571.69 1196.91 2578.08 1178.53 2586.51 1161.94 2597.25 1147.39 2610.03 1135.13 2624.34 1125.69 2639.93 1118.8 2656.55 1138.45 2662.43 1158.88 2665.75 1179.81 2666.77 1200.49 2665.24 1220.91 2661.4"/><polygon class="cls-2" points="1934.95 2931.31 1951.55 2936.93 1969.67 2938.98 1987.54 2936.93 2004.39 2931.31 2018.69 2921.85 2029.66 2909.84 2036.81 2896.04 2039.11 2880.96 2036.81 2865.88 2029.66 2852.08 2018.69 2840.06 2004.39 2830.86 1987.54 2824.98 1969.67 2822.94 1951.55 2824.98 1934.95 2830.86 1920.4 2840.06 1909.42 2852.08 1902.53 2865.88 1900.23 2880.96 1902.53 2896.04 1909.42 2909.84 1920.4 2921.85 1934.95 2931.31"/><polygon class="cls-2" points="500.49 1508.16 472.41 1505.09 444.33 1508.16 418.03 1517.1 395.57 1531.42 378.21 1550.33 367.48 1572.06 363.65 1595.57 367.48 1619.09 378.21 1640.81 395.57 1659.47 418.03 1674.04 444.33 1682.98 472.41 1686.05 500.49 1682.98 526.53 1674.04 548.99 1659.47 566.35 1640.81 577.08 1619.09 580.9 1595.57 577.08 1572.06 566.35 1550.33 548.99 1531.42 526.53 1517.1 500.49 1508.16"/><polygon class="cls-2" points="196.44 1565.15 189.55 1567.2 183.42 1570.52 178.57 1575.12 174.74 1580.23 172.7 1586.11 172.7 1765.54 187.51 1754.3 200.78 1742.03 212.27 1728.74 222.48 1714.42 230.65 1699.6 237.03 1683.75 241.63 1667.65 244.18 1651.29 244.69 1634.93 243.41 1618.32 239.84 1602.22 234.73 1586.11 232.44 1580.23 228.86 1575.12 224.01 1570.52 217.88 1567.2 210.99 1565.15 203.59 1564.39 196.44 1565.15"/><polygon class="cls-2" points="174.49 2479.67 186.74 2475.33 198.48 2469.71 208.95 2462.55 218.14 2454.37 226.05 2445.17 232.18 2434.95 236.52 2424.47 238.82 2413.22 239.33 2401.97 238.05 2390.73 234.73 2379.74 229.63 2369.51 226.82 2365.17 223.76 2361.08 220.18 2357.24 216.1 2353.92 211.76 2350.6 206.91 2347.79 202.06 2345.23 196.95 2342.93 191.34 2341.14 185.72 2339.86 180.1 2338.84 174.49 2338.33 174.49 2479.67"/><polygon class="cls-2" points="979.15 2541.53 987.07 2525.17 989.88 2507.79 987.07 2490.66 979.15 2474.31 966.39 2460.51 949.8 2449.77 930.39 2443.12 909.46 2440.82 888.78 2443.12 869.38 2449.77 852.79 2460.51 840.02 2474.31 831.85 2490.66 829.3 2507.79 831.85 2525.17 840.02 2541.53 852.79 2555.33 869.38 2566.07 888.78 2572.71 909.46 2575.01 930.39 2572.71 949.8 2566.07 966.39 2555.33 979.15 2541.53"/><polygon class="cls-2" points="1806.54 2664.72 1787.91 2666.77 1770.55 2672.65 1755.74 2682.11 1744.51 2694.63 1737.11 2708.94 1734.81 2724.53 1737.11 2739.87 1744.51 2754.44 1755.74 2766.71 1770.55 2776.16 1787.91 2782.3 1806.54 2784.34 1824.92 2782.3 1842.28 2776.16 1857.09 2766.71 1868.32 2754.44 1875.73 2739.87 1878.02 2724.53 1875.73 2708.94 1868.32 2694.63 1857.09 2682.11 1842.28 2672.65 1824.92 2666.77 1806.54 2664.72"/><polygon class="cls-2" points="2432.25 1899.47 2403.92 1900.24 2376.86 1907.4 2353.11 1920.43 2334.99 1938.58 2323.25 1960.31 2319.42 1983.82 2323.25 2007.08 2334.99 2028.81 2353.11 2046.95 2376.86 2059.99 2403.92 2067.4 2432.25 2067.91 2432.25 1899.47"/><polygon class="cls-2" points="1647.75 1982.54 1643.67 1961.07 1632.95 1941.14 1616.61 1924.27 1595.42 1911.49 1571.17 1903.82 1545.13 1901.52 1519.6 1904.84 1495.6 1913.79 1475.43 1927.33 1460.12 1944.97 1450.67 1965.42 1448.12 1986.89 1452.2 2008.36 1462.67 2028.29 1479.01 2045.16 1500.2 2057.94 1524.45 2065.87 1550.49 2068.17 1576.27 2064.59 1600.02 2055.9 1620.18 2042.1 1635.5 2024.46 1644.95 2004.27 1647.75 1982.54"/><polygon class="cls-2" points="1880.58 2193.66 1877.51 2174.24 1868.58 2156.35 1854.54 2141.01 1835.9 2129.25 1814.46 2121.84 1791.48 2119.28 1768.51 2121.84 1747.06 2129.25 1728.68 2141.01 1714.38 2156.35 1705.45 2174.24 1702.39 2193.66 1705.45 2212.83 1714.38 2230.72 1728.68 2246.06 1747.06 2257.82 1768.51 2265.23 1791.48 2267.79 1814.46 2265.23 1835.9 2257.82 1854.54 2246.06 1868.58 2230.72 1877.51 2212.83 1880.58 2193.66"/><polygon class="cls-2" points="2080.98 1796.21 2070.51 1775.25 2053.92 1757.36 2032.47 1743.56 2007.45 1734.87 1980.39 1731.8 1953.33 1734.87 1928.32 1743.56 1906.62 1757.36 1890.02 1775.25 1879.81 1796.21 1876.24 1818.71 1879.81 1841.45 1890.02 1862.41 1906.62 1880.3 1928.32 1894.11 1953.33 1902.8 1980.39 1905.86 2007.45 1902.8 2032.47 1894.11 2053.92 1880.3 2070.51 1862.41 2080.98 1841.45 2084.55 1818.71 2080.98 1796.21"/><polygon class="cls-2" points="2318.91 2351.37 2315.84 2333.47 2307.67 2316.86 2294.65 2302.8 2277.55 2291.81 2257.64 2284.91 2236.19 2282.61 2215 2284.91 2195.09 2291.81 2177.99 2302.8 2164.97 2316.86 2156.54 2333.47 2153.74 2351.37 2156.54 2369.26 2164.97 2385.87 2177.99 2399.93 2195.09 2410.92 2215 2417.82 2236.19 2420.12 2257.64 2417.82 2277.55 2410.92 2294.65 2399.93 2307.67 2385.87 2315.84 2369.26 2318.91 2351.37"/><polygon class="cls-2" points="1473.65 1588.16 1469.56 1562.86 1458.08 1539.34 1439.44 1519.15 1414.93 1503.56 1386.85 1493.84 1356.47 1490.52 1326.09 1493.84 1297.75 1503.56 1273.5 1519.15 1254.87 1539.34 1243.12 1562.86 1239.29 1588.16 1243.12 1613.46 1254.87 1637.23 1273.5 1657.42 1297.75 1673.02 1326.09 1682.73 1356.47 1686.05 1386.85 1682.73 1414.93 1673.02 1439.44 1657.42 1458.08 1637.23 1469.56 1613.46 1473.65 1588.16"/><polygon class="cls-2" points="1508.37 2666.51 1489.47 2672.9 1473.14 2683.38 1460.88 2696.67 1452.97 2712.52 1450.42 2729.39 1452.97 2746.26 1460.88 2762.11 1473.14 2775.4 1489.47 2785.88 1508.37 2792.27 1528.53 2794.57 1548.7 2792.27 1567.59 2785.88 1583.68 2775.4 1596.19 2762.11 1603.84 2746.26 1606.65 2729.39 1603.84 2712.52 1596.19 2696.67 1583.68 2683.38 1567.59 2672.9 1548.7 2666.51 1528.53 2664.21 1508.37 2666.51"/><polygon class="cls-2" points="1897.17 1444.52 1893.85 1423.05 1883.89 1402.85 1868.07 1385.73 1847.39 1372.44 1823.39 1364.26 1797.35 1361.19 1771.57 1364.26 1747.57 1372.44 1726.89 1385.73 1711.07 1402.85 1701.11 1423.05 1697.54 1444.52 1701.11 1466.24 1711.07 1486.18 1726.89 1503.56 1747.57 1516.85 1771.57 1525.03 1797.35 1527.84 1823.39 1525.03 1847.39 1516.85 1868.07 1503.56 1883.89 1486.18 1893.85 1466.24 1897.17 1444.52"/><polygon class="cls-2" points="496.92 4185.77 504.32 4177.85 508.91 4168.65 510.44 4158.93 508.91 4148.97 504.32 4139.76 496.92 4131.84 487.47 4125.96 476.49 4122.13 464.75 4120.85 453.01 4122.13 442.03 4125.96 432.58 4131.84 425.43 4139.76 420.84 4148.97 419.31 4158.93 420.84 4168.65 425.43 4177.85 432.58 4185.77 442.03 4191.9 453.01 4195.48 464.75 4196.76 476.49 4195.48 487.47 4191.9 496.92 4185.77"/><polygon class="cls-2" points="956.94 3758.16 942.14 3749.73 925.03 3744.61 906.91 3743.34 889.04 3746.15 872.7 3752.79 858.91 3762.76 848.7 3775.03 842.58 3789.34 841.3 3804.42 844.62 3819.25 852.53 3833.05 864.27 3844.55 879.08 3852.99 896.44 3858.1 914.31 3859.12 932.18 3856.31 948.52 3849.92 962.3 3839.95 972.52 3827.43 978.64 3813.37 979.92 3798.29 976.6 3783.21 968.69 3769.66 956.94 3758.16"/><polygon class="cls-2" points="648.05 3380.14 633.75 3381.16 619.45 3380.39 605.41 3378.09 591.88 3374.26 578.86 3369.14 567.12 3362.5 556.4 3354.58 546.95 3345.37 539.04 3335.41 532.91 3324.67 528.57 3313.43 542.61 3310.87 556.91 3309.85 571.2 3310.61 585.25 3312.91 598.77 3316.75 611.54 3322.11 623.54 3328.76 634.26 3336.43 643.45 3345.63 651.36 3355.6 657.49 3366.33 662.09 3377.58 648.05 3380.14"/><polygon class="cls-2" points="394.8 3321.86 397.35 3306.01 394.8 3290.42 387.4 3275.85 375.91 3263.33 360.85 3253.62 343.23 3247.48 324.6 3245.44 305.7 3247.48 288.09 3253.62 273.03 3263.33 261.54 3275.85 254.39 3290.42 251.84 3306.01 254.39 3321.86 261.54 3336.43 273.03 3348.95 288.09 3358.66 305.7 3364.8 324.6 3366.84 343.23 3364.8 360.85 3358.66 375.91 3348.95 387.4 3336.43 394.8 3321.86"/><polygon class="cls-2" points="653.92 3859.63 649.07 3867.81 642.94 3875.48 635.54 3882.38 627.37 3888.26 618.18 3893.37 608.48 3897.46 598.01 3900.53 587.29 3902.57 576.57 3903.34 565.59 3902.83 554.61 3901.29 554.36 3890.81 556.65 3880.59 560.99 3870.88 567.63 3861.93 576.31 3854.26 586.52 3848.13 597.75 3843.78 610.01 3841.23 622.52 3840.72 635.03 3842.25 646.77 3845.83 657.75 3851.2 653.92 3859.63"/><polygon class="cls-2" points="938.82 3203.01 924.52 3198.15 909.46 3196.62 894.14 3198.15 880.1 3203.01 867.85 3210.93 858.66 3220.9 852.79 3232.91 850.74 3245.44 852.79 3258.22 858.66 3269.97 867.85 3279.94 880.1 3287.87 894.14 3292.72 909.46 3294.26 924.52 3292.72 938.82 3287.87 950.82 3279.94 960.26 3269.97 965.88 3258.22 967.92 3245.44 965.88 3232.91 960.26 3220.9 950.82 3210.93 938.82 3203.01"/><polygon class="cls-2" points="390.2 3535.03 384.33 3524.8 380.5 3513.81 378.97 3502.57 379.48 3491.06 382.29 3480.07 387.14 3469.34 394.03 3459.63 402.97 3450.93 411.9 3458.09 419.82 3466.01 426.71 3474.7 432.58 3483.91 436.92 3493.62 440.24 3503.59 442.03 3514.07 442.54 3524.29 441.52 3534.77 439.22 3544.99 435.65 3554.96 430.54 3564.42 418.54 3559.31 407.56 3552.41 398.12 3544.23 390.2 3535.03"/><polygon class="cls-2" points="200.27 3451.96 208.95 3455.03 216.61 3459.88 222.22 3466.01 226.05 3473.43 227.08 3481.09 226.05 3489.02 222.22 3496.43 216.61 3502.57 208.95 3507.42 200.27 3510.49 190.82 3511.51 190.82 3450.93 200.27 3451.96"/><polygon class="cls-2" points="1582.65 3302.18 1580.36 3287.61 1573.46 3273.81 1562.74 3262.05 1548.7 3253.11 1532.36 3247.48 1514.75 3245.44 1497.13 3247.48 1480.54 3253.11 1466.5 3262.05 1455.78 3273.81 1448.88 3287.61 1446.59 3302.18 1448.88 3317 1455.78 3330.55 1466.5 3342.31 1480.54 3351.51 1497.13 3357.13 1514.75 3358.92 1532.36 3357.13 1548.7 3351.51 1562.74 3342.31 1573.46 3330.55 1580.36 3317 1582.65 3302.18"/><polygon class="cls-2" points="1895.64 3623.46 1897.68 3636.5 1903.81 3648.77 1913.51 3659.24 1926.02 3667.42 1940.83 3672.54 1956.4 3674.07 1972.22 3672.54 1987.03 3667.42 1999.54 3659.24 2009.24 3648.77 2015.11 3636.5 2017.41 3623.46 2015.11 3610.43 2009.24 3598.16 1999.54 3587.68 1987.03 3579.5 1972.22 3574.39 1956.4 3572.85 1940.83 3574.39 1926.02 3579.5 1913.51 3587.68 1903.81 3598.16 1897.68 3610.43 1895.64 3623.46"/><polygon class="cls-2" points="1856.07 3232.4 1849.94 3220.13 1840.24 3209.65 1827.73 3201.47 1813.18 3196.36 1797.35 3194.83 1781.78 3196.36 1766.97 3201.47 1754.46 3209.65 1744.76 3220.13 1738.64 3232.4 1736.59 3245.44 1738.64 3258.47 1744.76 3270.74 1754.46 3281.22 1766.97 3289.4 1781.78 3294.51 1797.35 3296.3 1813.18 3294.51 1827.73 3289.4 1840.24 3281.22 1849.94 3270.74 1856.07 3258.47 1858.11 3245.44 1856.07 3232.4"/><polygon class="cls-2" points="1675.84 3486.97 1681.96 3497.45 1686.3 3508.7 1688.35 3520.2 1688.35 3531.96 1686.05 3543.72 1681.71 3554.96 1667.92 3552.92 1654.39 3549.08 1641.88 3543.72 1630.65 3536.82 1620.69 3528.38 1612.52 3518.67 1606.14 3508.19 1602.06 3496.94 1599.76 3485.44 1599.76 3473.68 1602.06 3461.93 1606.4 3450.93 1620.44 3452.72 1633.71 3456.56 1646.22 3461.93 1657.71 3469.08 1667.41 3477.52 1675.84 3486.97"/><polygon class="cls-2" points="1367.19 3535.28 1368.98 3546.78 1372.55 3558.28 1377.91 3569.02 1390.93 3564.16 1402.93 3557.77 1413.65 3549.85 1423.1 3540.91 1430.76 3530.94 1436.63 3519.95 1440.71 3508.7 1442.76 3496.69 1442.5 3484.93 1440.46 3473.17 1436.38 3461.67 1430.25 3450.93 1417.74 3456.3 1406 3462.95 1395.79 3470.87 1386.59 3479.82 1379.19 3489.79 1373.58 3500.52 1369.49 3511.77 1367.45 3523.52 1367.19 3535.28"/><polygon class="cls-2" points="1148.41 3605.06 1146.62 3594.32 1141.77 3584.36 1133.6 3575.67 1123.39 3569.02 1111.39 3564.93 1098.37 3563.4 1085.61 3564.93 1073.36 3569.02 1063.14 3575.67 1055.23 3584.36 1050.12 3594.32 1048.59 3605.06 1050.12 3615.79 1055.23 3626.02 1063.14 3634.45 1073.36 3641.1 1085.61 3645.19 1098.37 3646.72 1111.39 3645.19 1123.39 3641.1 1133.6 3634.45 1141.77 3626.02 1146.62 3615.79 1148.41 3605.06"/><polygon class="cls-2" points="1391.95 4156.12 1390.68 4148.2 1386.85 4140.79 1380.98 4134.4 1373.32 4129.54 1364.38 4126.47 1354.94 4125.19 1345.49 4126.47 1336.56 4129.54 1328.9 4134.4 1323.03 4140.79 1319.2 4148.2 1318.18 4156.12 1319.2 4164.05 1323.03 4171.46 1328.9 4177.85 1336.56 4182.7 1345.49 4185.77 1354.94 4186.79 1364.38 4185.77 1373.32 4182.7 1380.98 4177.85 1386.85 4171.46 1390.68 4164.05 1391.95 4156.12"/><polygon class="cls-2" points="1165.26 3349.97 1158.37 3360.97 1153.52 3372.72 1166.28 3377.58 1180.07 3380.65 1194.11 3382.44 1208.15 3382.44 1222.19 3380.9 1235.97 3377.84 1248.99 3373.23 1260.99 3367.36 1272.22 3359.94 1281.93 3351.51 1290.35 3342.05 1296.99 3331.57 1284.48 3324.67 1270.95 3319.56 1256.4 3316.49 1241.34 3315.47 1226.27 3316.49 1211.98 3319.56 1198.19 3324.67 1185.68 3331.57 1174.45 3340.01 1165.26 3349.97"/><polygon class="cls-2" points="1621.71 3048.12 1639.84 3043.52 1656.94 3036.62 1672.52 3027.41 1686.05 3016.17 1697.03 3003.13 1705.45 2988.82 1710.81 2973.74 1713.36 2957.89 1712.6 2942.05 1708.77 2926.45 1701.88 2911.63 1681.45 2911.12 1661.28 2913.67 1642.14 2919.81 1624.78 2928.5 1609.97 2940 1597.72 2953.8 1589.04 2969.14 1584.19 2985.5 1582.91 3002.62 1585.97 3019.24 1592.61 3035.34 1602.82 3050.16 1621.71 3048.12"/><polygon class="cls-2" points="1565.81 3779.12 1567.34 3769.41 1565.81 3759.44 1561.21 3750.24 1554.06 3742.31 1544.62 3736.43 1533.64 3732.6 1521.9 3731.32 1510.15 3732.6 1498.92 3736.43 1489.73 3742.31 1482.33 3750.24 1477.73 3759.44 1476.2 3769.41 1477.73 3779.12 1482.33 3788.32 1489.73 3796.24 1498.92 3802.12 1510.15 3805.96 1521.9 3807.24 1533.64 3805.96 1544.62 3802.12 1554.06 3796.24 1561.21 3788.32 1565.81 3779.12"/><polygon class="cls-2" points="1815.99 3959.82 1802.71 3955.22 1788.67 3953.69 1774.63 3955.22 1761.61 3959.82 1750.38 3966.98 1741.7 3976.18 1736.34 3987.17 1734.55 3998.93 1736.34 4010.69 1741.7 4021.68 1750.38 4030.88 1761.61 4038.04 1774.63 4042.64 1788.67 4044.17 1802.71 4042.64 1815.99 4038.04 1827.22 4030.88 1835.9 4021.68 1841.26 4010.69 1843.05 3998.93 1841.26 3987.17 1835.9 3976.18 1827.22 3966.98 1815.99 3959.82"/><polygon class="cls-2" points="2160.37 4085.83 2171.86 4087.88 2171.86 4097.85 2169.82 4107.81 2165.73 4117.53 2159.86 4126.22 2152.46 4134.14 2143.27 4140.79 2132.8 4146.15 2121.57 4149.99 2109.82 4152.03 2097.57 4152.29 2085.57 4151.01 2074.09 4147.94 2075.11 4138.23 2077.91 4128.77 2082.25 4119.83 2088.38 4111.39 2096.04 4103.98 2104.97 4097.59 2114.93 4092.22 2125.65 4088.39 2137.14 4086.09 2148.63 4085.07 2160.37 4085.83"/><polygon class="cls-2" points="2072.3 3864.74 2071.28 3855.29 2082.51 3851.96 2094.25 3850.43 2106.25 3850.69 2117.99 3852.73 2129.23 3856.56 2139.18 3861.68 2148.12 3868.58 2155.27 3876.5 2160.63 3885.45 2163.95 3895.16 2165.22 3905.13 2164.2 3915.1 2153.22 3916.63 2141.99 3916.63 2130.76 3915.35 2120.04 3912.8 2109.82 3908.96 2100.38 3903.85 2092.21 3897.46 2085.06 3890.3 2079.19 3882.38 2074.85 3873.69 2072.3 3864.74"/><polygon class="cls-2" points="2245.64 3567.23 2250.49 3578.73 2263.76 3573.62 2276.02 3566.97 2287.25 3559.05 2297.21 3550.11 2305.38 3539.88 2312.27 3529.15 2317.12 3517.64 2320.44 3505.63 2321.72 3493.62 2320.95 3481.35 2318.4 3469.34 2314.06 3457.58 2300.53 3462.44 2287.76 3468.83 2276.27 3476.49 2266.06 3485.7 2257.38 3495.66 2250.49 3506.66 2245.64 3518.16 2242.57 3530.43 2241.55 3542.69 2242.57 3554.96 2245.64 3567.23"/><polygon class="cls-2" points="2407.24 3729.79 2422.81 3734.65 2422.81 3803.4 2407.24 3808.26 2390.64 3808.26 2375.07 3803.4 2362.3 3794.71 2354.14 3782.7 2351.33 3769.15 2354.14 3755.35 2362.3 3743.34 2375.07 3734.65 2390.64 3729.79 2407.24 3729.79"/><polygon class="cls-2" points="1273.5 3902.83 1261.5 3905.13 1249.25 3905.89 1237.25 3905.13 1225.25 3902.83 1213.76 3899.25 1203.3 3894.14 1193.6 3888 1185.17 3880.59 1178.28 3872.16 1172.92 3863.21 1169.09 3853.5 1167.05 3843.27 1178.53 3843.27 1190.02 3844.3 1201.26 3846.34 1211.98 3849.15 1222.44 3853.24 1232.4 3858.1 1241.59 3863.98 1249.76 3870.37 1257.16 3877.78 1263.8 3885.7 1269.16 3894.14 1273.5 3902.83"/><polygon class="cls-2" points="960.77 3994.07 959.24 3983.85 954.39 3974.14 946.99 3965.96 937.03 3959.57 925.54 3955.74 913.03 3954.2 900.78 3955.74 889.29 3959.57 879.34 3965.96 871.68 3974.14 867.08 3983.85 865.3 3994.07 867.08 4004.55 871.68 4014.01 879.34 4022.19 889.29 4028.58 900.78 4032.67 913.03 4033.95 925.54 4032.67 937.03 4028.58 946.99 4022.19 954.39 4014.01 959.24 4004.55 960.77 3994.07"/><polygon class="cls-2" points="787.94 3616.3 786.16 3604.55 780.8 3593.81 772.12 3584.36 760.88 3577.2 747.86 3572.6 733.82 3571.07 719.78 3572.6 706.51 3577.2 695.27 3584.36 686.85 3593.81 681.23 3604.55 679.45 3616.3 681.23 3628.06 686.85 3639.05 695.27 3648.51 706.51 3655.67 719.78 3660.01 733.82 3661.55 747.86 3660.01 760.88 3655.67 772.12 3648.51 780.8 3639.05 786.16 3628.06 787.94 3616.3"/><polygon class="cls-2" points="335.57 3762.25 330.47 3752.03 322.55 3743.59 312.34 3736.95 300.34 3732.6 287.32 3731.32 274.3 3732.6 262.31 3736.95 252.09 3743.59 244.18 3752.03 239.07 3762.25 237.29 3772.99 239.07 3783.72 244.18 3793.69 252.09 3802.38 262.31 3809.02 274.3 3813.11 287.32 3814.65 300.34 3813.11 312.34 3809.02 322.55 3802.38 330.47 3793.69 335.57 3783.72 337.36 3772.99 335.57 3762.25"/><polygon class="cls-2" points="1416.97 3076.49 1410.34 3062.94 1399.61 3051.44 1385.57 3042.49 1369.49 3036.87 1352.13 3034.83 1334.52 3036.87 1318.43 3042.49 1304.39 3051.44 1293.67 3062.94 1287.03 3076.49 1284.73 3091.06 1287.03 3105.63 1293.67 3119.17 1304.39 3130.68 1318.43 3139.62 1334.52 3145.24 1352.13 3147.29 1369.49 3145.24 1385.57 3139.62 1399.61 3130.68 1410.34 3119.17 1416.97 3105.63 1419.27 3091.06 1416.97 3076.49"/><polygon class="cls-2" points="228.86 2991.12 229.88 3002.62 228.86 3014.12 225.29 3025.11 219.42 3035.34 211.76 3044.8 202.06 3052.97 190.82 3059.62 190.82 2945.62 202.06 2952.27 211.76 2960.45 219.42 2969.65 225.29 2980.13 228.86 2991.12"/><polygon class="cls-2" points="2150.16 3323.39 2135.1 3322.37 2120.04 3323.14 2105.49 3325.69 2091.19 3329.78 2078.17 3335.66 2065.92 3343.33 2055.45 3352.02 2046.26 3362.24 2039.11 3373.23 2034.01 3384.99 2048.05 3388.57 2062.34 3390.36 2077.15 3390.87 2091.7 3389.85 2106 3387.04 2119.53 3382.69 2132.55 3377.07 2144.55 3369.91 2155.27 3361.73 2164.71 3352.28 2172.63 3342.05 2178.75 3331.06 2164.71 3326.46 2150.16 3323.39"/><polygon class="cls-2" points="2076.64 3163.14 2092.21 3168.5 2108.55 3171.57 2125.4 3172.59 2142.25 3171.06 2158.33 3167.48 2173.9 3161.6 2168.8 3148.82 2161.65 3136.81 2152.46 3125.56 2141.48 3115.59 2128.97 3107.16 2115.19 3100.26 2100.13 3094.89 2084.55 3091.57 2068.47 3090.03 2052.39 3090.29 2036.3 3092.59 2020.98 3096.68 2024.3 3110.48 2030.43 3123.52 2038.86 3135.79 2049.58 3146.52 2062.34 3155.72 2076.64 3163.14"/><polygon class="cls-2" points="435.65 3130.42 451.22 3135.79 468.07 3137.83 484.92 3135.79 500.74 3130.42 514.27 3121.73 524.49 3110.48 531.12 3097.45 533.17 3083.39 531.12 3069.33 524.49 3056.3 514.27 3045.05 500.74 3036.36 484.92 3030.99 468.07 3028.95 451.22 3030.99 435.65 3036.36 422.12 3045.05 411.65 3056.3 405.27 3069.33 402.97 3083.39 405.27 3097.45 411.65 3110.48 422.12 3121.73 435.65 3130.42"/><polygon class="cls-2" points="2127.95 352.1 2142.76 322.45 2147.61 290.5 2142.76 258.55 2127.95 228.91 2104.46 203.34 2073.83 183.92 2038.35 171.65 2000.05 167.31 1962.01 171.65 1926.27 183.92 1895.64 203.34 1872.15 228.91 1857.6 258.55 1852.49 290.5 1857.6 322.45 1872.15 352.1 1895.64 377.66 1926.27 397.09 1962.01 409.61 2000.05 413.7 2038.35 409.61 2073.83 397.09 2104.46 377.66 2127.95 352.1"/><polygon class="cls-2" points="1913.25 740.86 1925.76 715.56 1930.1 688.47 1925.76 661.12 1913.25 635.81 1893.34 614.09 1867.05 597.47 1836.92 586.99 1804.25 583.41 1771.57 586.99 1741.19 597.47 1715.15 614.09 1695.24 635.81 1682.73 661.12 1678.39 688.47 1682.73 715.56 1695.24 740.86 1715.15 762.59 1741.19 779.46 1771.57 789.94 1804.25 793.51 1836.92 789.94 1867.05 779.46 1893.34 762.59 1913.25 740.86"/><polygon class="cls-2" points="1602.31 1281.44 1615.08 1305.73 1643.92 1294.99 1670.47 1280.93 1694.47 1263.81 1715.4 1244.13 1732.77 1222.4 1746.3 1198.63 1755.49 1173.33 1760.59 1147.51 1760.85 1121.19 1757.02 1095.12 1748.59 1069.56 1735.83 1045.53 1707.24 1056.27 1680.43 1070.32 1656.43 1087.19 1635.5 1106.87 1618.14 1128.86 1604.61 1152.63 1595.42 1177.67 1590.57 1203.74 1590.06 1230.07 1593.89 1256.14 1602.31 1281.44"/><polygon class="cls-2" points="2307.42 1276.33 2284.19 1262.02 2263.76 1245.41 2246.41 1226.24 2232.62 1205.02 2222.66 1182.53 2217.05 1159.02 2215.26 1135.24 2218.07 1111.22 2224.7 1087.96 2235.68 1065.72 2262.74 1073.65 2288.27 1084.64 2311.5 1098.95 2332.18 1115.56 2349.54 1134.73 2363.07 1155.95 2373.03 1178.44 2378.9 1201.95 2380.43 1225.72 2377.88 1249.75 2370.99 1273.01 2360.26 1295.25 2332.95 1287.32 2307.42 1276.33"/><polygon class="cls-2" points="1856.58 1033.01 1851.98 1062.66 1856.58 1092.05 1870.37 1119.65 1892.07 1143.42 1920.4 1161.32 1953.33 1172.82 1988.56 1176.65 2024.05 1172.82 2056.98 1161.32 2085.32 1143.42 2107.02 1119.65 2120.8 1092.05 2125.4 1062.66 2120.8 1033.01 2107.02 1005.66 2085.32 981.89 2056.98 963.74 2024.05 952.49 1988.56 948.4 1953.33 952.49 1920.4 963.74 1892.07 981.89 1870.37 1005.66 1856.58 1033.01"/><polygon class="cls-2" points="2236.96 733.71 2206.32 726.55 2174.67 723.74 2143.01 724.5 2111.87 729.62 2081.74 738.31 2053.66 750.83 2028.13 766.42 2005.67 785.34 1987.03 806.55 1972.22 830.06 1961.76 855.11 1991.12 862.52 2021.24 866.87 2051.88 867.64 2082.25 865.34 2112.12 859.97 2140.97 851.28 2168.03 839.52 2193.3 824.95 2216.03 807.83 2235.94 788.66 2252.79 767.19 2266.06 744.18 2236.96 733.71"/><polygon class="cls-2" points="2448.85 790.19 2448.85 1033.01 2411.32 1028.92 2376.09 1016.65 2345.97 997.48 2322.99 972.43 2308.44 943.04 2303.59 911.6 2308.44 880.16 2322.99 851.02 2345.97 825.72 2376.09 806.55 2411.32 794.54 2448.85 790.19"/><polygon class="cls-2" points="1582.65 788.4 1547.94 784.57 1512.96 788.4 1480.54 799.65 1452.71 817.54 1431.27 840.8 1417.74 867.89 1413.14 897.03 1417.74 925.91 1431.27 953 1452.71 976.26 1480.54 994.16 1512.96 1005.4 1547.94 1009.24 1582.65 1005.4 1615.08 994.16 1642.9 976.26 1664.35 953 1677.88 925.91 1682.47 897.03 1677.88 867.89 1664.35 840.8 1642.9 817.54 1615.08 799.65 1582.65 788.4"/><polygon class="cls-2" points="1356.47 416.51 1323.28 420.09 1292.39 430.82 1265.84 447.95 1245.42 469.93 1232.65 495.75 1228.32 523.35 1232.65 551.21 1245.42 576.77 1265.84 599.01 1292.39 615.88 1323.28 626.61 1356.47 630.19 1389.66 626.61 1420.55 615.88 1446.84 599.01 1467.27 576.77 1480.03 551.21 1484.37 523.35 1480.03 495.75 1467.27 469.93 1446.84 447.95 1420.55 430.82 1389.66 420.09 1356.47 416.51"/><polygon class="cls-2" points="1776.42 405.01 1764.93 434.91 1748.59 463.29 1727.91 489.36 1702.9 512.87 1674.3 533.32 1642.39 550.19 1608.18 563.22 1592.61 534.09 1582.4 503.41 1577.29 471.98 1578.06 440.28 1584.19 408.84 1595.67 378.68 1612.27 350.06 1633.46 323.73 1659.24 300.22 1688.6 280.28 1721.28 263.92 1756.51 251.65 1770.8 280.79 1779.99 311.21 1784.08 342.64 1782.8 373.83 1776.42 405.01"/><polygon class="cls-2" points="2272.44 600.28 2285.21 626.61 2253.55 635.81 2220.88 641.43 2187.43 643.22 2153.99 641.18 2121.31 635.81 2089.66 626.61 2059.79 614.09 2032.22 598.24 2007.45 579.58 1985.76 558.37 1967.63 534.85 1953.33 509.55 1984.73 498.81 2017.92 492.17 2051.62 489.1 2085.83 490.38 2119.27 495.49 2151.44 504.69 2181.82 517.73 2209.39 534.09 2234.15 553.51 2255.34 575.75 2272.44 600.28"/><polygon class="cls-2" points="2399.32 401.94 2406.22 431.59 2408.26 462.01 2405.45 492.17 2398.05 521.82 2385.79 550.19 2353.63 536.64 2323.76 519.77 2296.7 499.83 2272.95 477.09 2253.04 452.04 2237.21 424.95 2225.73 396.57 2218.58 366.93 2216.28 337.02 2218.58 306.86 2225.47 277.47 2236.96 248.84 2269.64 261.88 2300.01 278.49 2327.33 298.43 2351.33 320.92 2371.75 346.22 2387.58 373.32 2399.32 401.94"/><polygon class="cls-2" points="1480.54 226.86 1515.52 238.87 1553.3 243.22 1590.83 238.87 1626.05 226.86 1656.18 207.69 1679.15 182.39 1693.71 153.25 1698.56 121.81 1407.78 121.81 1412.63 153.25 1427.18 182.39 1450.42 207.69 1480.54 226.86"/><polygon class="cls-2" points="719.78 1287.07 692.47 1281.96 664.38 1279.66 636.3 1280.68 608.73 1284.51 581.67 1291.41 556.14 1301.38 532.4 1313.9 510.7 1328.73 491.81 1345.86 475.47 1365.02 462.45 1385.98 488.49 1396.21 516.06 1403.11 544.65 1406.69 573.5 1406.94 602.09 1403.36 629.92 1396.46 655.96 1386.24 680.21 1372.95 701.66 1356.85 720.04 1338.19 735.1 1317.48 746.08 1295.25 719.78 1287.07"/><polygon class="cls-2" points="596.48 500.86 583.71 475.04 563.54 452.81 537 435.94 506.11 425.2 472.92 421.62 439.73 425.2 408.84 435.94 382.29 452.81 362.12 475.04 349.1 500.86 344.76 528.46 349.1 556.07 362.12 581.88 382.29 604.12 408.84 620.99 439.73 631.72 472.92 635.3 506.11 631.72 537 620.99 563.54 604.12 583.71 581.88 596.48 556.07 601.07 528.46 596.48 500.86"/><polygon class="cls-2" points="258.99 1231.86 257.96 1215.5 254.9 1199.14 250.05 1183.3 243.16 1168.22 234.48 1153.39 224.01 1139.59 212.01 1126.55 198.48 1114.8 183.42 1104.32 167.34 1094.86 167.34 1294.22 175.51 1298.06 184.19 1300.62 193.38 1302.15 202.82 1302.4 212.01 1301.13 220.95 1298.83 229.12 1295.25 236.78 1290.65 243.16 1285.28 248.52 1278.89 252.6 1271.73 255.16 1264.32 257.96 1248.22 258.99 1231.86"/><polygon class="cls-2" points="433.35 903.68 428.5 872.75 414.2 843.87 391.48 819.07 361.87 800.16 327.15 788.15 290.13 784.06 253.12 788.15 218.65 800.16 188.78 819.07 166.06 843.87 151.77 872.75 146.91 903.68 151.77 934.6 166.06 963.49 188.78 988.28 218.65 1007.19 253.12 1019.2 290.13 1023.04 327.15 1019.2 361.87 1007.19 391.48 988.28 414.2 963.49 428.5 934.6 433.35 903.68"/><polygon class="cls-2" points="496.4 1137.03 493.09 1159.53 486.19 1181.51 475.73 1202.21 461.69 1221.64 444.58 1239.27 424.67 1254.61 402.2 1267.64 377.95 1277.87 352.17 1285.02 344 1263.3 339.4 1241.06 338.89 1218.31 341.95 1195.82 348.85 1173.84 359.57 1153.14 373.61 1133.45 390.71 1116.08 410.63 1100.48 432.84 1087.7 457.35 1077.48 483.13 1070.32 491.3 1091.79 495.64 1114.29 496.4 1137.03"/><polygon class="cls-2" points="1097.61 962.46 1063.91 966.04 1032.51 977.03 1005.7 994.16 984.77 1016.9 972.01 1042.97 967.41 1071.09 972.01 1099.21 984.77 1125.53 1005.7 1148.02 1032.51 1165.15 1063.91 1176.14 1097.61 1179.72 1131.31 1176.14 1162.71 1165.15 1189.77 1148.02 1210.44 1125.53 1223.46 1099.21 1227.81 1071.09 1223.46 1042.97 1210.44 1016.9 1189.77 994.16 1162.71 977.03 1131.31 966.04 1097.61 962.46"/><polygon class="cls-2" points="611.03 1037.35 606.94 1063.93 611.03 1090.77 623.54 1115.56 643.2 1137.03 668.72 1153.39 698.59 1163.62 730.5 1167.19 762.67 1163.62 792.54 1153.39 818.07 1137.03 837.73 1115.56 849.98 1090.77 854.32 1063.93 849.98 1037.35 837.73 1012.3 818.07 991.09 792.54 974.48 762.67 964.25 730.5 960.67 698.59 964.25 668.72 974.48 643.2 991.09 623.54 1012.3 611.03 1037.35"/><polygon class="cls-2" points="884.95 580.09 854.06 590.83 827.77 607.95 807.35 629.93 794.58 655.75 790.24 683.35 794.58 710.96 807.35 736.77 827.77 759.01 854.06 775.88 884.95 786.61 918.14 790.19 951.33 786.61 982.22 775.88 1008.77 759.01 1029.19 736.77 1041.95 710.96 1046.3 683.35 1041.95 655.75 1029.19 629.93 1008.77 607.95 982.22 590.83 951.33 580.09 918.14 576.51 884.95 580.09"/><polygon class="cls-2" points="738.93 822.65 751.44 846.68 721.06 856.65 689.4 862.78 656.73 864.83 624.3 863.04 592.39 856.9 562.01 846.93 533.93 833.39 508.4 816.52 486.19 796.58 467.81 774.09 453.77 749.55 444.33 723.48 474.7 716.58 505.85 713.26 537.25 713 568.4 716.32 598.77 722.97 627.88 732.68 655.45 745.72 680.47 761.31 703.19 779.71 722.59 800.16 738.93 822.65"/><polygon class="cls-2" points="1477.48 1305.73 1449.14 1296.53 1422.85 1284 1399.1 1268.41 1378.42 1250.01 1361.07 1229.3 1347.79 1206.56 1338.6 1182.53 1333.75 1157.74 1333.49 1132.43 1337.58 1107.38 1346.26 1083.1 1359.02 1060.36 1383.79 1072.62 1406.51 1087.19 1427.18 1104.06 1445.06 1122.72 1460.37 1142.91 1472.63 1164.64 1481.82 1187.39 1487.69 1210.9 1490.24 1234.67 1489.22 1258.7 1485.13 1282.47 1477.48 1305.73"/><polygon class="cls-2" points="1389.4 734.47 1360.3 723.48 1329.15 716.32 1297.5 713.51 1265.33 715.05 1233.93 720.41 1204.06 730.13 1176.49 743.42 1151.47 760.29 1130.03 780.22 1112.67 802.72 1099.91 827.25 1091.74 853.32 1121.1 859.2 1151.22 862.27 1181.34 862.01 1211.47 858.69 1240.57 852.3 1268.65 842.84 1295.2 830.58 1319.45 815.5 1341.41 798.12 1360.56 778.69 1376.64 757.22 1389.4 734.47"/><polygon class="cls-2" points="1131.56 487.57 1127.99 456.38 1120.58 425.71 1109.1 395.81 1094.03 367.18 1075.4 339.83 1053.44 314.53 1028.42 291.01 1000.6 270.06 969.96 251.65 956.43 282.07 947.75 313.76 943.92 346.22 945.2 378.68 951.58 410.63 962.82 441.81 978.9 471.21 999.32 498.81 1024.09 524.12 1052.42 546.35 1084.08 565.27 1118.29 580.6 1126.71 550.19 1131.05 519 1131.56 487.57"/><polygon class="cls-2" points="694 413.7 687.62 444.63 686.08 476.06 689.66 507.5 697.83 538.17 711.1 567.82 741.99 551.21 770.58 531.78 796.37 509.8 818.83 485.52 837.98 458.94 853.04 431.08 864.27 401.69 871.42 371.53 874.49 340.86 872.96 310.18 867.34 279.77 857.64 250.12 824.19 264.69 793.3 282.83 765.48 304.05 741.23 328.33 721.06 354.91 705.23 383.54 694 413.7"/><polygon class="cls-2" points="227.59 555.55 223.76 560.16 218.91 564.25 213.29 567.31 206.91 569.1 200.01 569.87 193.38 569.36 187 567.82 180.87 565.01 175.76 561.43 171.68 556.83 168.87 551.72 167.59 546.35 167.59 318.11 187 332.68 204.35 349.03 219.42 367.18 231.93 386.35 241.63 406.8 248.52 427.76 252.35 449.48 253.37 471.46 251.33 493.19 246.22 514.66 238.31 535.62 227.59 555.55"/><polygon class="cls-2" points="630.18 309.93 662.6 294.85 692.21 275.93 718.5 254.21 740.72 229.42 759.1 202.32 772.63 173.44 737.14 162.96 700.38 156.57 663.11 154.53 625.58 157.34 589.07 164.24 554.1 175.74 521.42 191.08 491.55 210.25 465.51 232.48 443.56 258.04 425.94 285.65 413.44 315.3 448.67 324.75 485.43 330.12 522.44 331.4 559.46 328.33 595.46 321.18 630.18 309.93"/><polygon class="cls-2" points="424.41 108.78 133.64 108.78 138.49 140.21 153.04 169.35 176.27 194.66 206.4 213.82 241.37 225.84 279.15 230.18 316.68 225.84 351.66 213.82 381.78 194.66 405.01 169.35 419.56 140.21 424.41 108.78"/><polygon class="cls-2" points="1293.16 344.43 1330.18 343.16 1366.43 337.53 1401.4 327.56 1387.11 300.22 1368.72 274.91 1347.03 251.4 1321.75 230.44 1293.67 212.29 1263.04 197.21 1230.36 185.2 1196.4 176.76 1161.17 172.16 1125.69 170.88 1090.2 173.44 1055.49 179.57 1066.21 209.22 1081.78 237.08 1102.2 262.64 1126.97 285.65 1155.3 305.33 1186.96 321.18 1220.91 333.19 1256.65 341.11 1293.16 344.43"/><polygon class="cls-2" points="2394.22 240.15 2375.58 232.23 2358.48 222.51 2342.9 210.76 2329.37 197.47 2318.4 182.9 2309.46 167.05 2303.33 150.44 2300.01 133.31 2299.51 115.93 2464.42 115.93 2454.97 250.38 2434.3 249.35 2413.87 245.77 2394.22 240.15"/></g></svg>